<?xml version="1.0" encoding="UTF-8"?>
<svg id="Layer_1" data-name="Layer 1" xmlns="http://www.w3.org/2000/svg" viewBox="0 0 1224 792">
  <defs>
    <style>
      .cls-1 {
        fill: #231f20;
      }
    </style>
  </defs>
  <g>
    <path class="cls-1" d="M740.62,397.29c9.25-22.7-3.64-48.12-22.99-60.61l16.22,24.01c14.18,27-3.32,57.3-18.51,79.78-20.52,30.37-35.12,40.02-63.8,61.34-1.8,1.34-2.97,4.42-6.56,4.18-1.32-.38,1.15-2.29,1.55-2.64,12.78-11.2,30.28-22.65,41.32-34.99,7.18-8.03,32.22-43.09,36.58-52.27,3.35-7.05,10.7-31.99,9.97-39.2-.45-4.48-13.35-28.99-16.74-32.4-15.7-15.83-45.01-36.07-66.39-42.32-11.67-3.41-41.86-3.37-54.07-.72-38.52,8.37-83.87,41.63-82.42,84.92.16,4.63,4.3,29.76,6.36,32.3,4.01,4.96,13.26,7.51,17.73,12.05-11.61-.73-20.17-8.52-24.35-19.02-6.07-15.26-5.53-42.9,1.15-57.98,7.2-16.25,37.03-39.83,53.12-47.22,41.74-19.18,76.35-13.33,116.09,5.96,8.77,4.26,14.87,10.59,22.62,15.01,4.58,2.61,8.85,2.93,12.95,4.82,11.72,5.41,16.19,17.65,24.31,26.91,1.56,5.98,2.37,30.96-.54,35.93-.78,1.32-1.85,2.47-3.58,2.16Z"/>
    <path class="cls-1" d="M516.17,299.39c-4.77,3.88-7.1,10.81-10.32,15.28-7.09,9.89-22.06,24.01-24.09,36.62-.53,3.26,1.03,6.84.55,10.91-.73,6.13-5.14,14.18-5.97,20.21-1.91,13.94-1.87,25.15,1.14,39.14,3.17,14.74,3.09,12.1,11.65,22.84,1.81,2.27,2.24,5.76,4.7,7.84,1.9,1.61,23,9.75,25.64,9.92,12.27.79,26.98-4.58,38.09-9.05,7.25-2.92,16.29-4.64,23.37-9.04,4.37-2.72,7.94-8.18,12.97-10.55l6.62-10.09c-2.28,13.51-14.79,23.97-27.18,28.73-2.95,1.13-6.72,1.13-10.12,2.42-4.21,1.6-12.22,7.64-14.66,8.34-3.36.97-9.13.44-13.1,1.54-2.61.72-5.61,3.37-7.72,3.59-14.07,1.51-37.88-12.19-46.22-23.38-1.36-1.82-10.16-16.68-10.34-17.74-.33-2,1.17-6.85.77-10.33s-2.61-5.4-3.09-8.39c-2.46-15.45,5.01-30.37,9.08-45.14,6.06-21.97,8.32-25.58,19.94-44.86,7.69-12.77,8.64-19.22,21.8-28.37,6.53-4.54,15.25-8.67,21.55-13.71,1.03-.83.71-2.73,2.4-4.13,8.61-7.14,34.59-16.16,45.68-20.19,2.49-.91,4.48-3.22,6.72-3.73,3.89-.88,8.53.45,12.28-.26,2.02-.38,3.15-2.13,4.75-2.56,15.21-4.11,38.11-1.89,53.37,2.02,2.25.58,21.82,8.28,21.87,9.47.07,1.72-2.79,1.39-4.17,1.07-12.19-2.83-20.25-9.28-34.77-6.57-2.87.54-6.94,3.7-9.71,3.89-4.63.32-11.05-4.08-15.61-4.15-9.09-.14-40.74,8.98-50.08,12.67-6,2.36-25.75,13.11-29.95,17.09-2.53,2.4-4.05,6.21-7.32,8.36-5.13,3.36-15.95,6.57-20.54,10.3Z"/>
    <path class="cls-1" d="M626.67,508.07c5.76-6.51,15.48-11.38,21.61-17.05,6.52-6.04,12.52-15.86,18.63-22.66,6.26-6.99,18.19-16.74,22.97-24.07s13.76-23.72,16.77-31.31c1.43-3.61,7.57-28,7.36-30.86-.15-2.08-2.71-5.04-3.41-7.57-3.07-11.04-2.6-18.49-12.31-26.36-8.5-6.9-24.47-18.15-33.95-23.54-15.45-8.77-32.82-14.78-50.6-12.92-13.7,1.44-36.64,7.5-48.63,14.1-7.29,4.01-14.26,11.27-20.99,15.59-1.39.89-2.07,2.07-4.21,1.53,3.03-4.46,7.58-7.4,11.53-10.93,20.35-18.22,31.52-19.5,57.93-23.61,3.37-.52,5.12-3.05,9.47-3.17,13.98-.4,35.92,5.57,47.93,12.8,10.8,6.51,33.52,20.74,41.51,29.57,13.19,14.59,16.74,34.13,12.19,53.04-3.59,14.92-26.84,47.47-37.36,59.84-11.05,12.99-37.27,38.58-51.87,46.38-1.47.79-2.8,1.47-4.55,1.19Z"/>
    <path class="cls-1" d="M732.98,309.83c.64.69,3.08,4.89,1.89,5.95-4.77-4.03-11.9-8.83-18.02-10.21-2.82-.63-5.6.06-8.68-.73-5.91-1.51-15.95-10.19-19.55-10.84-3.96-.72-11.71,3.34-16.25,2.75-6.79-.88-19.96-8.38-28.58-9.16-24.7-2.22-51.28.28-72.82,11.8-4.29,2.29-11.21,3.01-14.58,4.91-1.67.95-1.95,3.89-4.22,5.57-3.95,2.92-10.5,2.45-13.37,5.34-2.03,2.05-2.78,6.5-4.73,8.85-3.1,3.72-9.68,7.31-13.53,11.56-2.65,2.93-14.98,19.2-15.77,21.93s.63,4.35.35,6.53c-1.75,13.56-4.41,27.1-2.87,41.05.65,5.87,5.07,11,5.29,15.63.07,1.56.59,3.1-1.61,2.65-2.32-1.14-7.11-15.38-7.58-18.55-3.28-21.79-2.9-31.88,4.21-52.73,6.07-17.81,22.66-30.73,37.43-42.01,12.38-9.45,52.64-30.11,67.44-31.88,15.77-1.89,42.62,5.11,58.14,9.63,3.1.9,6.89,3.42,9.79,3.82,9.24,1.28,13.78-5.19,24.44,1.67,2.41,1.55,5.37,6.33,7.39,7.25,3.05,1.39,7.66.03,11.51,1.03,1.11.29,13.6,7.45,14.28,8.19Z"/>
    <path class="cls-1" d="M640.02,351.56c.68,6.13,6.57,9.82,9.12,15.43,5.44,11.93,12.09,33.72,7.52,46.19-1.12,3.05-4.12,4.98-5.16,7.38-2.57,5.93-5.28,12.29-7.83,18.29-3.41,8.03-1.72,9.45-9.17,16.96-12.72,12.82-26.88,26.43-41.36,37.04-4,2.93-18.23,10.64-22.66,11.84-3.5.95-6.34-.46-9.67-.81,1.25-3.07,4.13-.48,7.35-1.48,5.07-1.57,13.05-8.29,18.07-11.24,10.96-6.44,21.07-13.31,29.96-23.35,15.03-16.97,34.06-47.13,35.48-70.14,1.15-18.7-13.21-43.44-30.96-50.32-3.02-1.17-28.62-6.39-30.65-6.06-1.87.3-16.7,5.33-17.5,6.1-1.62,1.56-3.1,5.73-6.51,8.64-4.35,3.71-9.29,5.11-13.1,9.89-1.07,1.34-7.92,10.81-8.29,11.57-4.12,8.4.98,32.94,13.3,20.9,1.55-1.52,1.66-3.81,3.34-5.32,3.26-2.93,9.43-2.45,12.05-7.27.31,6.19-6.92,7.27-10.37,10-2.09,1.65-2.66,4.38-6.18,6.36-4.84,2.72-10.39,4.28-13.61-1.34-5.06-8.83-3.01-26.02,2.99-34.36,6.7-9.31,16.93-16.21,25.6-23.53,6.48-5.48,15.54-12.14,23.56-5.72,15.95,1.07,30.16,7.96,44.71,14.35Z"/>
    <path class="cls-1" d="M709.25,276.06c-5.22.11-10.37-3.78-15.32-4.1-4.55-.3-9.31,1.66-14.52,1.01-3.69-.47-6.14-3.16-10.2-1.92-1.8.55-2.57,2.84-3.9,3.47s-13.47-.42-15.9-.82c-4.39-.72-10.85-3.84-13.89-3.96-37.45-1.51-66.64,8.82-95.65,31.93-2.2,1.75-3.31,4.45-4.95,5.78-3.73,3.02-10.3,4.15-13.38,6.2-10.8,7.16-19.96,29.04-25.28,40.61-.68,1.48.62,2.85-2.36,2.28.73-7.77,4.78-21.61,8.81-28.28,2.98-4.94,19.68-22.81,24.71-25.46,2.68-1.41,5.98-1.29,9.28-3.26,8.05-4.8,20.59-19.31,27.69-22.48,19.98-8.92,56.65-16.49,78.46-14.55,5.12.45,10.87,3.11,15.7,3.2,4.36.08,6.81-2.42,10.32-2.14,3.54.28,8.74,3.24,12.95,3.88,8.59,1.32,15.52.98,23.99,5.28,1.35.68,2.99,1.82,3.45,3.34Z"/>
    <path class="cls-1" d="M696.35,357.95c2.52,2.91,4.76,8.12,5.31,11.93,1.97,13.63.41,26.75-3.61,39.74-5.53,17.83-11.36,22.47-22.29,36.24-3.67,4.62-7.67,11.97-12.46,16.8-2.3,2.32-6.45,4.38-8.82,6.86-4.79,5.01-7.54,13.22-11.61,17.66s-23,19.91-28.33,20.81c-1.05.18-3.84.84-3.55-.94,11.02-3.09,18.56-13.23,27.17-20.4.16-.79-1.01-.67-1.54-.5-5.6,1.75-20.41,14.67-27.4,18.6-2.71,1.52-5.31,3.84-8.69,3.32,2.73-5.25,10.56-6.68,14.6-9.95,5.79-4.69,10.21-7.73,16.06-12.16,22.67-17.18,42.19-41.19,54.21-67.04,3.55-7.64,1.13-6.44.9-11.74-.63-14.72-1.16-22.69-4.47-37.32-.64-2.83-4.97-9.29-1.84-12.25,1.8-1.7,2.17,1.36,2.58,2.06,4.31,7.29,7.34,18.38,8.82,26.76.84,4.75-1.12,9.38,2.19,14.02,1.37.92,5.14-8.74,5-10.69-.46-6.77-3.53-23.2-6.05-29.58-1.17-2.97-5.99-4.49-5.23-8.85.66-.74,8.48,5.97,9.04,6.62Z"/>
    <path class="cls-1" d="M661.97,349.46c1.11.73,12.52,22.02,12.73,23.34,1.28,7.92-.13,19.35.19,27.17.08,2.09,2.02,3.49,1.94,6.11-.17,5.36-5.53,19.09-8.97,23.51-5.43,6.97-3.62,4.83-6.92,12.93-6.72,16.51-34.5,37.3-48.38,48.83-6.5,5.39-12.39,12.65-21.43,13.58.64-2.39,3.84-2.31,5.22-3.69,12.5-12.48,29.03-23.71,41.9-36.46,8.3-8.22,8.44-12.11,13.1-21.39,3.61-7.19,8.75-12.44,11.94-21.51,3.46-9.85,1.86-12.23,2.6-20.52.22-2.49,2.42-5.95,2.51-8.86.08-2.43-2.37-15.06-3.3-17.41-1.03-2.58-4.59-4.42-5.52-8.07-1.14-4.49.68-7.52-2-11.59-3.17-4.81-19.08-16.18-24.61-18.25-7.76-2.9-18.5-4.63-26.74-6.75-1.73-.45-3.06,1.07-2.54-2.11l27.21,3.62c10.8,3.2,18.84,11.42,27.22,16.72,1.09.69,3.02.23,3.86.79Z"/>
    <path class="cls-1" d="M674.06,342.61c.64.84,2.7,1.14,3.32,2.41,1.15,2.36.31,5.77.51,8.39-5.43,1.1-5.1-3.21-7.81-6.3-12.72-14.52-39.87-27.35-59.32-25.89-3.02.23-29.02,8-32.43,9.48-7.45,3.22-19.35,14.72-25.99,20.01-2.94,2.34-8,4.11-10.29,6.43-2.44,2.49-8.99,12.02-9.81,15.27-1.58,6.33,1.19,5.74,1.47,9.72.51,7.37-5.69,15.49-.1,24.06,3.86,5.93,12.42,7.15,13.59,14.1-8.42-2.53-15.04-5.66-19.01-13.91-6.74-14.01-2.92-40.04,7.02-51.91,1.72-2.06,6.52-3.05,9.62-5.02,22.34-14.19,30.13-25.74,59.63-30.27,22.4-3.44,31.04-.2,50.43,8.62,3.05,1.39,6.93,1.45,9.7,2.84,3.64,1.83,6.93,8.62,9.47,11.96Z"/>
    <path class="cls-1" d="M600.01,349.23c5.05,1.1,8.41,13.6,11.25,16.44,1.11,1.11,4.15,1.51,5.92,2.97,4.18,3.45,8.4,21.51,8.47,27.15.13,11.1-9.76,28.33-13.37,38.87-.67,1.96.17,4.32-.78,6.53-1,2.31-7.93,5.28-10.42,7.35-7.1,5.9-11.77,11.05-19.74,16.85-12.66,9.23-39.11,21.53-55.62,21.83-3.45.06-12.35-.92-14.06-4.2,9.87,2.38,17.86,1.52,27.42-1.34,20.95-6.26,31.39-11.29,45.76-27.41,8.42-9.44,15.45-8.34,21.11-21.75,2.43-5.75,2-9.92,3.01-14.66,3.13-14.65,12.38-19.4,6.89-36.4-.61-1.9-.36-4.64-1.23-6.08-1.19-1.96-6.79-2.35-8.76-5.87-1.33-2.39-.93-5.09-1.97-7.44-3.72-8.4-4.67-9.11-13.43-10.61-2.52-.43-7.54,1.3-6.67-2.22h16.2Z"/>
    <path class="cls-1" d="M492.85,362.82c-1.49,3.21-3.22,6.67-3.94,10.16-2.21,10.82-1.06,33.89,2.14,44.4,2.15,7.03,6.67,13.37,8.07,20.69,5.39-2.9,8.13,4.01,11.22,6.29,2.25,1.66,6.11,2.95,8.59,4.77.76.56.95,2.19,1.28,2.39.52.3,9.82-1.74,11.85-1.94,12.93-1.3,34.05-5.84,44.37-14.17,1.45-1.17,2.16-3.49,4.29-5.12s6.7-2.68,8.03-3.99c2.5-2.48,4.88-10.4,6.7-13.68,1.1-1.99,3.5-3.12,4.48-4.93,5.1-9.51-1.26-23.35-4.9-32.57-.99-2.51-4.98-5.31-1.29-8.11.74,6.35,13.26,17.92,13.81,22.58.14,1.17-.71,6.42-1.02,7.98-3.1,15.42-12.2,28.41-24.32,38.39-8.74,7.19-33.78,17.1-45.2,18.61-3.55.47-5.42-.85-8.02-.76-2.99.11-7.25,3.5-9.95,2.56-2.97-1.04-10.76-7.58-14.35-9.76-2.77-1.68-6.82-2.22-9.44-4.67-2.7-6.51-6.42-13.56-8.44-20.31-3.72-12.47-4.4-25.36-3.37-38.41.51-6.48,2.57-17.93,9.4-20.38Z"/>
    <path class="cls-1" d="M512.72,426.57c2.14.82,2.05,4.49,3.69,6.23,1.42,1.5,3.87,1.62,4.44,2.43.54.76-.35,2.45.88,2.87,5.78,2,8.89-.04,13.7-.84,2.65-.44,6.75.37,8.64-.77,2.22-1.33,4.94-8.16,4.2-10.95,5.97,1.55,10.02-4.04,13.65-5.69,5.03-2.3,14.17-4.18,17.72-8.41,2.88-3.42,6.75-14.11,6-18.59-.16-.97-3.14-10.66-3.42-11.21-1.62-3.15-10.04-3.97-13.04-2.6-1.48.67-3.48,3.84-5.31,5.14-2.1,1.49-4.64,2.1-6.75,3.7-1.66,1.26-2.32,5.96-5.72,3.69,4.16-2.77,7.64-9.17,10.95-12.04,5.28-4.58,18.58-10.66,24.02-4.12,1.37,1.65,6.63,15.4,6.81,17.25.25,2.57-3.6,16.84-5.16,18.8-1.23,1.54-3.89,2.19-5.29,4.12-1.31,1.79-1.54,4.17-3.09,6.31-.69.95-13.82,13.02-14.68,13.54-1.45.88-30.68,7.7-33.04,7.82-10.14.53-21.57-4.86-19.19-16.66ZM573.35,420.3c-6.96,1.87-15.14,6.9-19.86,12.52,8.5.34,14.31-7.15,19.86-12.52Z"/>
    <path class="cls-1" d="M527.36,492.39l16.74-2.58c18.43-3.04,30.61-14.72,45.41-22.54,2.72-1.44,6.09-1.27,8.44-3.06,1.89-1.44,3.72-5.87,5.79-7.79,1.22-1.13,3.36-1.43,4.63-2.68,5.75-5.65,9.93-12.14,16.8-16.72-4.28-5.69,3.61-12.41,4.46-17.51.33-2.02-.89-3.77-.43-5.53.66-2.53,5.55-7.19,5.81-9.92.23-2.41-1.64-6.67-1.69-9.55-.03-2.23,1.34-4.29,1.25-6.11-.05-.98-5.38-17.58-5.94-18.66-3.04-5.91-10.78-9.82-14.51-15.27,6.56,2.5,15.59,7.57,19.03,13.88,9.16,16.83,9.97,31.24,4.53,49.9-1.29,4.42-3.98,6.95-5.29,10.39-1.15,3.01-1.53,10.13-3.15,12.53-.99,1.47-3.39,1.51-4.61,2.71-8.16,8.05-16.64,17.12-26.87,23.3-4.05,2.45-8.66,3.39-13.26,6.6-3.89,2.71-7.7,7.7-11.95,10.01-5.67,3.08-16.55,4.12-23.25,6.02-2.66.75-4.88,3.1-7.91,3.59-4.53.72-9.59-.17-14.04-.99Z"/>
    <path class="cls-1" d="M514.93,117.36c5.59-1.54,8.64,3.79,13.45,5.11l-.53,2.08-12-6.28c-1.71,14.9,3.64,15.75,13.09,22.96,1.5,1.15,2.44,4.02,3.32,4.23,7.2,1.75,23.24-3.73,27.85-9.7,3.19-4.13,6.32-16.76,5.51-21.69-1.46-8.88-15.88-26.68-23.14-32.35-5.83-4.55-12.94-6.16-18.26-11-.15-.8.96-.63,1.57-.53,6.12,1.03,23.62,13.79,28.67,18.37,2.62,2.38,13.51,19.96,14.24,23.38,1.77,8.28-2.78,23.73-10.06,28.73-4.01,2.76-9.62,2.88-12.48,6.85,7.23,1.7,20.72-6.24,23.53-12.52,1.08-2.41,3.45-8.95,4.22-11.45,3.44-11.19-8.95-29.12-16.8-36.6s-17.8-12.13-25.58-19.37c-.16-.79,1.01-.67,1.54-.5,3.52,1.13,24.12,16.08,27.74,19.31,13.89,12.38,19.21,25.07,16.69,43.88-7.81,11.91-15.95,19.03-30.85,18.82-.38,0-5.18-.52-6.12-.64-7.51-.92-12.87-3.56-18.94-8.23-6.81-5.24-10.56-14.88-6.67-22.86Z"/>
    <path class="cls-1" d="M695.66,68.12c-8.68,8.88-20.79,14.13-29.24,23.54-6.31,7.04-15.66,22.55-13.41,32.15.36,1.52,3.69,10.47,4.48,12.24,2.81,6.28,16.3,14.22,23.53,12.52-5.92-5.47-12.58-4.6-17.6-12.18-3.29-4.96-6.18-17.56-4.93-23.4.73-3.41,3.59-7.21,5.37-10.3,6.06-10.5,15.73-19.79,26.23-26.03,3.8-2.26,8.52-4.5,12.88-5.4-4.73,5.46-12.34,6.88-18.27,11.51-7.26,5.67-21.68,23.47-23.14,32.35-.86,5.2,2.54,18.66,6.23,22.65,4.2,4.54,22.29,11.63,27.65,8.5.42-.24,1.29-2.83,2.8-3.98,9.45-7.22,14.8-8.06,13.09-22.96-5.13.85-7.16,6.63-12.53,6.26-.63-2.71.8-1.82,1.97-2.69,2.12-1.57,9.57-7.06,11.73-4,3.48,7.92-.25,17.24-6.91,22.37-6.07,4.67-11.44,7.32-18.94,8.23-3.84.47-12.53.68-16.37-.1-3.08-.62-9.84-5.33-12.28-7.58-.96-.88-7.55-8.38-7.8-8.92-1.08-2.37-.89-19-.29-22.2,2.75-14.72,28.65-33.18,41.04-40.49,1.5-.89,2.74-2.38,4.71-2.08Z"/>
    <path class="cls-1" d="M646.52,233.24l-10.98,2.07c-13.96-.38-27.33,3.59-40.89,6.15-14.84,2.8-19.02,6.63-32.49,12.46-23.5,10.18-37.19,20.58-55.19,38.89-4.91,4.99-9.8,10.11-15.16,14.62,1.44-5.23,8.05-9.24,12.02-13.57,9.73-10.59,17.64-18.34,28.24-28.2,1.99-1.85,9.27-10.63,9.92-10.99,2.3-1.29,7.48-.4,10.42-2.14,1.55-.92,1.55-2.82,2.92-3.6,4.35-2.47,13.34-4.33,19.41-7.5,16.4-8.54,23.09-7.88,40.97-8.14,4.57-.07,11.25-2.19,15.65-2.14,4.57.05,10.33,2.43,15.16,2.1Z"/>
    <path class="cls-1" d="M681.03,495.53c1.59-5.97,9.06-4.46,13.65-5.68,8.94-2.37,35.54-27.24,40.92-35.39,4.39-6.67,11.36-23.88,12.23-31.67.52-4.63-.56-9.87.35-14.28.68-3.3,5.46-8.02,5.62-9.64.17-1.73-2.39-5.47-2.74-8.33-.66-5.31,1.12-9.8,1.15-14.65.03-4.32-1.26-8.03-1.14-12.55.04-1.59-.93-4.16,1.57-3.65l2.61,18.3c1.97,19.64.59,38.7-3.39,58.24-2.88,14.18-10.58,17.1-19.62,26.37-11.44,11.73-21.76,23.56-37.93,30.01-2.34.94-11.65,4.11-13.27,2.92Z"/>
    <path class="cls-1" d="M742.71,403.58c-2.83,9.42-2.02,19.63-4.91,29.04-4.87,15.84-18.57,24.3-28.52,36.29-2.72,3.28-5.7,10.08-8.46,12.44-3.42,2.93-8.53,2.68-12.37,4.36-8.82,3.84-17.64,13.31-27.28,16.09l7.4-6.7c33.82-18.97,63.07-52.13,71.01-90.81l3.12-.72Z"/>
    <path class="cls-1" d="M417.58,240.54c29.76,11.91,53.32-4.16,65.02-31.67,7.46-17.55-2.47-28.01-16.17-37.54l-45.7-17.52c9.7-.26,22.43,4.04,31.63,7.55,32.1,12.25,47.01,26.43,27.08,60.02-9.19,15.49-25.1,24.94-43.53,25.48-4.06.12-18.24-1.39-18.33-6.33-1.99-.8-2.95-.15-5.75-2.09-8.49-5.86-17.36-21.43-8.35-30.3.94,4.75-2.54,7.94-1.55,13.03.79,4.08,5.52,4.95,6.16,5.93.45.69-1.44,2.23-.01,4.56,2.41,3.93,20.01,7.76,24.72,7.85,2.9.05,15.24-2.65,18.27-3.66,11.88-3.96,20.39-16.61,21.94-28.76,7.37,1-1.28,14.21-3.76,17.67-7.5,10.47-23.74,16.74-36.47,16.89-4.86.06-7.37-1.67-11.55-2.17-1.27-.16-3.67-.72-3.63,1.05Z"/>
    <path class="cls-1" d="M809.62,241.59c-.09,4.94-14.27,6.44-18.33,6.33-18.43-.54-34.34-9.99-43.53-25.48-15.3-25.79-12.62-40.27,14.11-54.17,5.84-3.04,39.35-15.97,43.57-13.96.45.22,1.32,1.31,1.04,1.58-16.82,5.06-38.7,9.9-52.28,21.42-17.03,14.44-14.33,27.41-2.94,44.76,13.88,21.15,34.21,29.17,58.36,19.52.03-1.77-2.36-1.21-3.63-1.05-4.17.51-6.69,2.23-11.55,2.17-9.78-.12-26.46-5.54-33.42-12.63-2.76-2.81-11.81-17.34-9.46-20.91,3.03-4.59,4.19,6.53,5.38,9.31,9.35,21.79,36.44,24.93,56.69,18.24,1.87-.62,5.91-3.43,6.2-5.2.18-1.08-1.12-2.74-.71-3.36.64-.98,5.36-1.85,6.16-5.93.99-5.09-2.49-8.28-1.55-13.03,8.86,8.82.38,23.56-7.81,29.8-3.18,2.42-3.8,1.59-6.3,2.59Z"/>
    <path class="cls-1" d="M515.86,145.44c10.7,11.37,31.7,16.8,46.38,11.36,13.83-5.13,36.32-21.12,34.07-37.92-6.39-24.23-27.68-36.82-44.91-52.85,3.8.04,7.79,3.16,10.8,5.39,10.12,7.49,30.71,26.41,35.4,37.77,7.92,19.18-2.01,29.46-16.42,40.41-15.27,11.6-32.28,14.41-50.66,7.84-4.55-1.63-14.53-6.63-14.65-12Z"/>
    <path class="cls-1" d="M675.8,67.07l-31.91,28.18c-8.01,11.55-16.66,23.32-10.64,37.86,3.56,8.61,25.03,22.92,33.96,25.62,13.69,4.15,34.5-1.65,44.13-12.25-.02,5.18-9.54,10.03-13.9,11.7-8.92,3.4-21.95,4.41-31.3,2.67-13.32-2.48-39.5-22.22-39.55-36.84-.07-18.9,23.55-40.45,37.81-51.12,3.16-2.36,7.43-5.71,11.41-5.83Z"/>
    <path class="cls-1" d="M479.26,456.86c-3.31.48-5.29-2.55-7.29-4.72-12.94-14.1-15.74-29.23-14.66-48.03s7.63-34.92,13.59-52.78c2.14,0,.83,4.14.56,5.27-1.42,5.94-8.74,20.25-8.83,24.49-.06,2.72,2.82,6.52,2.96,9.5.25,5.35-3.65,12.59-3.11,18.73.33,3.79,3.85,7.33,3.91,8.38.06,1.1-2.91,3.82-2.89,8.34.05,11.11,6.28,11.51,10.97,19.43,2.17,3.65,3.28,7.5,4.79,11.4Z"/>
    <path class="cls-1" d="M780.34,232.18c.14.6.34,2.15-.51,2.08-13.54-4.01-17.57-14.79-22.18-26.81,2.16-9.52,5.2-20.01,12.94-26.3,14.7-11.94,35.42-15.13,53.66-17.93-.33,1.88-2.12,1.79-3.51,2.23-6.26,2-13.33,2.47-19.71,4.33-15.19,4.43-32.25,13.65-37.39,29.6.64,10.65-1.55,16.4,5.7,25.51,3.92,4.93,6.29,4.81,11,7.29-.95-4.17-4.6-5-6.69-7.42-6.8-7.85-6.41-17.91-3.49-27.32,4.77-15.4,32.81-26.75,47.54-28.76,3.4-.46,10.23-1.43,11.78,1.83-17-.18-35.17,6.18-48,17.34-6.71,5.84-9.33,10.92-10.3,20.06-.47,4.46.69,9.29,3.07,13.12.6.96,9.36,10.78,9.98,11.19.56.38,9.64,4.19,10.19,4.19.59,0,.46-1.82,1.86-2.46,7.82-3.59,13.46.2,19.44-8.75.83-1.25,4.24-7.82,3.3-8.7-4.17-.78-6.92,2.09-10.94,2.14-2.16.03-3.07.58-2.65-2.14,7.69-1.35,19.3-5.52,14.03,7.23-2.39,5.78-7.06,9.38-12.97,11.07-2,.57-12.42,2.7-14.09,2.65-4.77-.15-8.25-3.27-12.06-5.27Z"/>
    <path class="cls-1" d="M446.85,231.13c9.63-5.07,16.66-10.1,16.8-22.49.03-2.85.13-7.87,0-10.42-.43-8.89-17.49-21.56-25.13-25.14-10.42-4.88-21.7-5.38-32.08-8.69-1.39-.44-3.18-.36-3.51-2.23,18.24,2.81,38.96,5.99,53.66,17.93,7.73,6.28,10.78,16.78,12.94,26.3-4.62,12.02-8.65,22.8-22.18,26.81-.85.08-.64-1.48-.51-2.08-3.81,2.01-7.29,5.13-12.06,5.27-3.24.1-18-3.61-20.74-5.41-4.19-2.75-8.2-10.85-6.96-15.89,4.28-3.95,9.71.79,14.68.35.42,2.72-.5,2.16-2.65,2.14-4.02-.05-6.77-2.91-10.94-2.14-.94.88,2.47,7.46,3.3,8.7,5.98,8.95,11.62,5.16,19.44,8.75,1.4.64,1.27,2.46,1.86,2.46.55,0,9.63-3.82,10.19-4.19.62-.42,9.38-10.23,9.98-11.19,2.38-3.83,3.54-8.66,3.07-13.12-.97-9.14-3.59-14.22-10.3-20.06-12.69-11.04-31.15-17.69-48-17.34,1.55-3.26,8.38-2.3,11.78-1.83,14.73,2.01,42.77,13.36,47.54,28.76,2.92,9.41,3.31,19.47-3.49,27.32-2.1,2.42-5.74,3.25-6.69,7.42Z"/>
    <path class="cls-1" d="M752.11,353.41c-9.63-6.55-12.9-18.41-23.06-25.54-6.41-4.5-15.1-5.43-21.58-8.74-3.03-1.55-5.9-4.91-9-6.68-6.67-3.82-15.3-3.82-19.54-10.24,2.88,1.42,6.78-.92,8.93-.63.62.08,7.83,5.86,10.21,7.08,7.8,4,21.43,5.17,26.36,8.14,10.41,6.27,20.15,21.71,26.14,32.4.75,1.34,2.13,2.07,1.53,4.21Z"/>
    <path class="cls-1" d="M685.21,66.03l-15.68,12.52,18.31-11.47c2.95-.3.85,1.29,0,2.1-5.75,5.51-14.66,8.63-20.9,13.59-4.14,3.29-16.48,15.66-18.74,19.93-5.36,10.13-1.45,21.52-1.68,32.29-6.01-4.19-3.34-15.04-4.17-21.44-.18-1.43-.79-3.3-2.09-1.55-1.54,9.35-1.79,15.07,1.63,23.98,1.82,4.74-2.77.92-4.22-3.1-7.92-21.9,11.07-37.11,25.09-50.11,6.87-6.37,12.48-14.24,22.45-16.74Z"/>
    <path class="cls-1" d="M557.31,73.69c2,1.74,4.63,5.71,7.12,8.03,14.01,13.03,33.02,28.18,25.09,50.1-1.45,4.02-6.04,7.84-4.22,3.1,3.42-8.91,3.17-14.63,1.63-23.98-1.3-1.74-1.9.12-2.09,1.55-.82,6.4,1.84,17.26-4.17,21.44.38-15.12,4.58-24.92-5.75-37.63-10.7-13.18-24.08-19.76-37.12-29.78.93-1.64,2.36.35,3.25.93,5.03,3.28,9.87,6.95,15.06,10.04,2.27.23,1.87-.31.52-1.57-4.37-4.09-11.07-6-14.65-10.95,4.68,1.56,11.64,5.51,15.33,8.71Z"/>
    <path class="cls-1" d="M649.66,224.88c-.62,2.23-1.33,1.59-2.89,1.41-6.15-.71-13.03-3.05-19.6-3.5-23.63-1.63-45.32,3.06-66.36,13.57-.47-2.17,1.05-2.43,2.4-3.34,4.54-3.05,13.08-7.59,18.51-7.1v-5.24c4.16.09,8.73-.43,12.79-1.31,2.31-.5,4.01-2.38,6.6-2.8,3.59-.59,23.05.43,27.06,1.05,6.44.98,14.54,6.77,21.49,7.26Z"/>
    <path class="cls-1" d="M814.84,156.94c.5,3.01-.66,1.72-2.42,2.22-3.96,1.13-8.2,1.47-12.2,2.49-1.19.3-3.4-.07-3.14,1.54,6.36.66,12.4-2.03,18.58-2.85,1.13-.15,3.6-1.16,3.36.75-19.95,4.73-50.2,6.35-59.43,27.86-2.4,5.6-2.89,11.76-5.92,17.08-2.59.59-1.65-3.29-1.46-4.6.76-5.39,4.26-10.17,5.79-15.12.39-1.26.9-3.08-1.16-2.21-3.44,1.46-7.13,11.58-7.74,15.26-.19,1.13.67,11.82-2.2,8.77-4.76-27.9,22.22-36.62,43.12-44.14,8.07-2.91,15.61-7.02,24.81-7.06Z"/>
    <path class="cls-1" d="M480.29,207.1c-2.86,3.05-2.01-7.64-2.2-8.77-.61-3.68-4.3-13.8-7.74-15.26-2.06-.88-1.55.95-1.16,2.21,1.53,4.95,5.03,9.74,5.79,15.12.19,1.31,1.13,5.19-1.46,4.6-3.91-7.67-4.29-16.84-9.49-23.96-4.98-6.82-21.69-13.9-29.94-16.06-6.08-1.59-13.42-1.88-19.69-3.3-1.64-.37-5.76-.79-6.23-2.64l21.94,3.11c.25-1.6-1.95-1.23-3.14-1.54-4.74-1.21-9.77-2.07-14.63-2.64-.06-1.89-.53-2.2,1.55-2.09,3.88.21,11.55,2.18,15.41,3.42,12.28,3.94,37.51,13.88,45.15,23.84,5.29,6.89,7.9,15.41,5.83,23.95Z"/>
    <path class="cls-1" d="M493.9,206.05c.5.52,3.89-1.18,3.12,1.56-5.78,3-6.75,8.77-10.21,13.83s-8.52,13.15-13.31,17.01c-21.04,16.97-62.94,20.19-77.4-6.23-5.03-9.19-6.97-20.19,2.11-27.2,2.7,2.08.84,1.62-.02,3.09-5.28,9.07-4.82,14.32.34,23.76,6.94,12.69,26.55,19.09,40.33,17.94,7.45-.62,27.26-7.3,33.03-11.92,5.09-4.07,16.42-23.61,19.05-30.08,1.17-2.88,1.8-5.97,1.91-9.07,2.84.37.62,6.87,1.04,7.3Z"/>
    <path class="cls-1" d="M823.93,243.35c-4.56,3.87-17.57,8.37-23.56,9.15-28.46,3.71-46.31-9.67-61.23-31.9-2.96-4.41-3.44-9.36-8.96-11.95-.76-2.74,2.62-1.04,3.12-1.56l.02-7.3,2.93,9.07c8.59,15.16,12.88,28.63,29.94,35.91,16.67,7.12,33.02,8.81,49.6.37,9.5-4.83,20.01-19.98,16.19-30.61-1.29-3.59-6.8-7.94-1.98-8.47,2.06.42,5.84,11.43,5.72,13.95-.29,5.79-7.44,19.65-11.77,23.34Z"/>
    <path class="cls-1" d="M600.54,133.95c4.41,1.61-1.1,5.62-1.09,7.83,0,.79,3.45,0,2.13,2.61-5.98-.83-8.13,4.31-12.2,7.14-4.81,3.34-14.28,10.3-19.45,11.91-31.43,9.81-76.91-7.79-70.74-46.68.37-2.36,9.15-15.88,12.46-10.51-.07.77-6.11,4.06-7.21,5.3-4.91,5.5-3.46,20.95-.51,27.52,3.55,7.88,16.68,18.12,24.79,21.2,8.69,3.29,30.61,5.17,39.35,2.36,5.53-1.78,27.29-18.87,30.58-23.77.92-1.37,1.65-3.27,1.89-4.91Z"/>
    <path class="cls-1" d="M718.29,151.34c-10.42,10.38-33.69,17.54-48.16,15.96-13.12-1.43-21.86-7.45-32.31-14.73-4.07-2.83-6.23-7.98-12.2-7.14l2.05-3.59-3-5.31,1.99-1.54c.24,1.65.97,3.54,1.89,4.91,3.18,4.76,26.03,22.77,31.3,24.1,8.63,2.17,28.62.72,37.1-2.12,9.09-3.05,22.89-13.67,26.63-22.5,4.59-10.83,4.08-26.82-8.03-32.08l2.61-1.61c4.4,3.31,9.43,8.31,9.97,14.1,1.06,11.51-1.49,23.24-9.83,31.55Z"/>
    <path class="cls-1" d="M571.26,460.01c-.29,1.34-1.72,2.21-2.79,2.95-7.5,5.15-36.13,16.81-44.77,16.99-5.72.12-21.44-3.38-26.57-5.97-4.18-2.12-9.28-9.57-13.67-12.41,7.63-1.82,9.05,6.89,14.63,9.41,3.61,1.63,20.1,3.61,24.57,3.74,13.83.43,22.08-5.47,33.98-10.01,4.7-1.8,9.99-2.59,14.63-4.7Z"/>
    <path class="cls-1" d="M732.25,114.61c-.14-1.16-3.39-5.2.79-.78,2.47,10.13,1.09,25.67-4.54,34.66-6.77,10.8-33.81,22.35-46.2,23.84-20.77,2.5-36.51-5.18-54.6-13.82.05-1.37,3.15-.19,4.09.1,20.15,6.27,35.05,15.91,57.81,10.58,12.16-2.85,32.16-13.34,38.02-24.72.65-1.26,4.64-12.43,4.64-13.13,0-5.13.59-11.88,0-16.72Z"/>
    <path class="cls-1" d="M499.12,220.69c.45,1.96-1.1,2.48-2.08,3.65-8.72,10.41-22.43,22.77-35.26,27.46-14.62,5.34-45.46,6.32-58.79-2.42-5.27-3.46-14.93-17.66-15.75-23.99-.3-2.28.08-2.63,1.32-.27s2.19,5.93,3.5,8.01c11.89,18.94,32.83,23.35,54.27,21,16.3-1.79,30.15-14.26,41.82-24.03l10.97-9.41Z"/>
    <path class="cls-1" d="M494.94,130.29c4.64,29.34,46.37,44.56,72.41,37.9,3.81-.97,8.61-4.64,12-5.77,1.8-.6,4.12.08,5.78-.49,1.12-.38,14.27-6.82,14.36-4.47-18.23,8.6-33.68,16.33-54.6,13.82-12.38-1.49-39.43-13.04-46.2-23.84-5.63-8.99-7-24.53-4.54-34.66,4.04-4.79.79.23.79.78,0,4.88-.7,12.3,0,16.72Z"/>
    <path class="cls-1" d="M838.9,224.87c1.85-.26,1.06,2.38.79,3.4-1.47,5.61-10.66,18.98-15.49,22.15-13.29,8.72-44.26,7.72-58.79,2.42-15.3-5.58-27.16-18.36-37.36-30.58,1.36-1.9,2.22.48,2.95,1.24,2.58,2.68,5.21,5.24,8.04,7.64,12.19,10.34,25.68,22.51,42.82,24.08,24.98,2.28,49.03-4.49,57.03-30.34Z"/>
    <path class="cls-1" d="M837.84,183.07c1.74,1.33-.11,1.89-1.54,2.08-4.32.58-8.41-1.22-11.48-1.01-1.29.09-22.21,5.41-23.07,6.23-.97.93-.87,3.05-1.84,3.9-.72.63-2.7.55-3.95,1.77-5.67,5.51-11.17,12.66-10.32,20.91.46,4.46,2.19,11.85,7.24,12.61-1.37,3.26-6.37-.36-7.38-2.02s-4.14-13.96-4-15.81c.04-.46,2.27-8.11,2.54-8.78,1.75-4.32,11.81-13.07,16.1-15.26,11.87-6.06,24.8-5.74,37.69-4.63Z"/>
    <path class="cls-1" d="M434.31,228.01c4.99.52,6.82-8.09,7.24-12.11.84-8.05-4.32-14.93-9.77-20.38-1.66-1.66-3.69-1.59-4.5-2.29-1.21-1.06-.54-3.47-3.14-4.72-1.01-.49-20.56-5.33-21.77-5.42-3.07-.21-7.15,1.6-11.48,1.01-1.43-.19-3.28-.75-1.54-2.08,8.94-.05,16.41-1.73,25.35.25,13.47,2.99,26.04,11.6,29.31,25.05.27,1.1,1.56,1.95,1.67,3.37.15,1.84-2.98,14.15-4,15.81-1.23,2.02-6.42,5.46-7.38,1.51Z"/>
    <path class="cls-1" d="M712.62,113.9c-.36-.61-.7-2.8.29-2.94,12.26,2.77,7.99,28.62,1.13,33.51-1.87,1.33-4.47.83-6.61,1.75-1.95.84-3.24,3.16-5.14,4.26-11.91,6.92-32.19,7.77-44.17.6-2.22-1.33-11.97-9.69-12.48-11.58-.39-1.43.48-3.48,1.41-3.46.67.02,6.92,8.1,8.98,9.82,11.09,9.26,26.26,9.91,39.67,5.35,1.42-.48,17.54-10.5,18.73-11.58,5.27-4.79,1.15-7.09,1.27-9.18.15-2.55,3.74-4.23,2.76-9.32-.96-5.01-5.17-6.09-5.85-7.24Z"/>
    <path class="cls-1" d="M716.57,81.7c-2.35,4.57-9.45,3.69-13.52,5.81-1.53.79-16.85,12.02-17.31,13-.68,1.44-.26,3.21-.75,4.51-.6,1.58-2.52,1.6-2.96,2.49-4.42,8.98-6.33,16.24-1.43,25.29,2.24,4.13,5.8,9.37,10.88,8.97-1.39,2.65-7.14.68-8.69-.44-.65-.47-8.47-12.28-8.81-13.42-.12-.38-1.04-7.51-1.02-7.91.03-.58,3.08-10.41,3.41-11.1,3.05-6.36,10.29-14.4,16.2-18.29,6.86-4.51,15.79-7.92,24-8.91Z"/>
    <path class="cls-1" d="M542.68,95.63c3.38,3.09,11.63,19.7,11.55,24.06,0,.4-1.16,7.5-1.28,7.87-.24.7-7.55,11.88-8.08,12.39-1.32,1.28-8.64,3.84-9.15.27,5.81,2.6,13.63-12.34,14.12-16.19.45-3.58-2.51-13.67-4.38-16.99-.88-1.56-2.5-1.65-2.89-2.37-1.1-2.02.01-4.23-2.08-6.33-1.09-1.1-14.86-11.11-16.34-11.88-4.07-2.12-11.17-1.24-13.52-5.81,4.59.67,11.23,2.12,15.39,3.94,3.06,1.34,14.17,8.75,16.66,11.03Z"/>
    <path class="cls-1" d="M514.58,112.86c-.68,1.15-4.89,2.23-5.85,7.24s2.61,6.77,2.76,9.32c.13,2.09-4,4.39,1.27,9.18,1.38,1.26,16.98,10.91,18.76,11.56,13.18,4.76,28.75,3.78,39.65-5.33,2.06-1.72,8.31-9.8,8.98-9.82.92-.02,1.79,2.03,1.41,3.46-.51,1.89-10.25,10.25-12.48,11.58-11.98,7.17-32.26,6.32-44.17-.6-1.9-1.1-3.19-3.42-5.14-4.26-2.14-.93-4.74-.42-6.61-1.75-6.86-4.89-11.12-30.75,1.13-33.51.99.14.65,2.33.29,2.94Z"/>
    <path class="cls-1" d="M724.66,295.16c.43.36.95,2.1,1.32,2.85-1.11.82-13.8-4.83-14.67-5.73-1.2-1.25-.89-3.53-1.04-3.67-.35-.35-2.36.95-3.47.77-3.15-.51-9.1-5.15-15.97-5.86-7.13-.74-17.59,2.29-22.35-3.25,5.09-.32,12.37-2.25,17.2-2.14,7.08.16,17.21,4.67,24.98,3.5,3.93,1.15,4.88,8.14,7.93,10.72,2.07,1.75,4.65,1.63,6.07,2.82Z"/>
    <path class="cls-1" d="M727.83,102.84l1.28,8.11c-4.49-6.07-6.65-9.6-15.08-7.38-1.2.31-.02,2.46-1.21,3.3-3.97,2.82-13.65,4.58-17.44,8.21-5.53,5.29-2.63,8.59-.72,14.65l13.54-4.68c-2.91,3.24-12.37,10.66-16.23,6.82-1.26-1.25-2.7-9.87-2.41-11.78.22-1.41,7.11-11.71,8.24-12.76,4.13-3.84,25.89-8.59,30.03-4.5Z"/>
    <path class="cls-1" d="M518.99,123.5l13.55,5.19,2.98-8c.03-.59-2.74-5.74-3.26-6.29-3.66-3.84-13.83-5.7-17.88-8.58-1.19-.84-.02-2.99-1.21-3.3-8.43-2.22-10.59,1.31-15.08,7.38-4.34-16.46,27.16-8.13,31.82-3.08,1.16,1.26,7.5,10.86,7.72,12.23.27,1.74-1.06,9.81-1.99,11.15-3.45,5.03-14.37-2.86-16.65-6.71Z"/>
    <path class="cls-1" d="M410.27,219.63l16.72.02c1.45-8.21-1.62-13.35-10.03-14.55-3.46-.49-11.91.49-14.3-.3-1.54-.51-2.46-2.55-3.36-2.63-.43-.04-7.17,2.6-7.92,3.31l-3.59,8.95c-10.07-13.86,23.8-16.86,29.77-14.1,2.04,3.5,7.93,4.16,9.87,6.85,2.18,3.02,3.16,10.19,2.54,13.89-1.51,4.57-16.24-.36-19.71-1.44Z"/>
    <path class="cls-1" d="M839.92,215.46c-4.03.25-.69-5.69-4.1-8.94-.75-.71-7.49-3.35-7.92-3.31-.9.08-1.82,2.12-3.36,2.63-2.99.99-11.56-.36-16.03.67-7.82,1.79-9.33,6.8-8.3,14.19l16.72-.02c-5.1,1.22-12.98,4.7-18.14,3-3.74-1.23-.87-12.89.98-15.45.4-.55,10.78-7.24,11.45-7.37,7.87-1.51,36.27.58,28.71,14.61Z"/>
    <path class="cls-1" d="M733.3,148.59c-1.46,3.92-2.97,8.1-6.52,10.72s-16.82,9.06-21.34,11.07c-21.32,9.45-42.15,9-64.58,5.29-2.39-.39-4.49-1.67-6.88-2.02-.33-5.04,6.99-.27,8.94-.04,14.84,1.72,29.84,3.86,44.63.84,8.79-1.79,32.49-11.65,38.48-17.97,2.48-2.61,2.83-7.73,7.26-7.89Z"/>
    <path class="cls-1" d="M390.4,178.88c-.27-1.38,1.93-1.68,2.87-1.83,4.85-.75,23.71.17,28.77,1.03,18.16,3.07,42.05,30.75,22.21,45.75.95-4.54,4.63-9.32,4.54-14.14-.08-4.32-3.69-11.95-6.29-15.52-5.38-7.38-22.6-15.28-31.71-15.28h-20.39Z"/>
    <path class="cls-1" d="M816.41,179.93c-9.96.86-25.76,7.13-31.71,15.28-2.6,3.57-6.21,11.2-6.29,15.52-.09,4.83,3.58,9.6,4.54,14.14-19.83-14.99,4.05-42.68,22.21-45.75,5.06-.85,23.93-1.78,28.77-1.03.94.15,3.14.45,2.87,1.83h-20.39Z"/>
    <path class="cls-1" d="M593.21,170.53c.94,2.55-4.49,3.7-5.99,3.93-23.16,3.6-43.38,4.66-65.47-5.13-4.52-2-17.89-8.52-21.34-11.07s-5.05-6.8-6.52-10.72c4.3-.03,4.68,5.02,6.72,7.38,12.99,14.97,46.67,20.71,65.15,18.99,9.3-.87,18.32-1.59,27.44-3.38Z"/>
    <path class="cls-1" d="M398.77,249.95c3.27.16,5.61,4.43,7.07,5.2,12.4,6.59,48.41,3.86,61.58-1.88,5.38-2.35,9.86-6.64,13.99-8.96,2.49-1.4,6.69-1.97,9.25-3.34s4.93-5.05,8.45-5.65c.25,2.45-2.21,3.78-3.83,5.04-8.77,6.79-25.16,14.67-35.86,17.45-13.98,3.63-36.1,4.03-50.26,1.08-4.02-.84-9.4-4.63-10.39-8.94Z"/>
    <path class="cls-1" d="M747.2,247.52c21.76,11.82,37.66,14.66,62.67,11.57,7.55-.93,12.36-3.68,18.05-8.09.54,3.98-6.58,8.46-10.71,9.15-20.24,3.34-44.62,2.23-63.55-5.99-4.09-1.78-22.24-12.3-24.57-15.15-.67-.82-2.02-1.88-.5-2.64,3.15.92,5.66,4.43,7.94,5.65,3.63,1.95,7.48,3.77,10.67,5.5Z"/>
    <path class="cls-1" d="M543.04,498.67c-.82-3.46,3.64-1.65,6.32-2.55,6.17-2.08,9.96-1.74,14.53-3.24,11.75-3.88,30-16.86,40.84-23.98,1.57-1.03,1.11-2.55,3.11,0-8.16,5.85-16.56,13.68-25.13,18.75-9.9,5.85-21.36,10.24-32.88,11.02-2.25.15-4.53-.02-6.78.01Z"/>
    <path class="cls-1" d="M713.43,77.52c.57,3.17-.95,1.6-2.46,2.18-17.14,6.53-40.66,17.93-41.37,39.26-.34,10.23,3.13,12.27,8.82,19.16.68.83,2.75,2.08,1.05,3.13-17.56-7.17-14.2-30.96-4.71-43.36,6.85-8.94,27.89-16.99,38.67-20.38Z"/>
    <path class="cls-1" d="M547.22,140.21c-1.11-1.15,8.6-10.3,9.35-13.12,6.93-26.34-20.15-40.76-40.34-48.45-1.52-.58-3.04.99-2.46-2.18,3.34.29,7.08,1.58,10.13,2.93,7.16,3.17,24.27,11.53,28.56,17.44,9.3,12.81,13.2,36.54-5.23,43.38Z"/>
    <path class="cls-1" d="M593.21,357.59c2.89,2.96-8.42,7.28-11.62,6.73-1.2-.2-4.86-2.82-5.09-2.56.49,6.32-5.53,4.11-8.11,5.51-.39.21-1.45,2.43-3.22,3.55-2.12,1.35-6.64,2.16-7.23,2.72-2.51,2.37-1.42,11.39-7.58,9.12,1.5-2.69,2.56-7.98,4.5-10.13,3.05-3.37,13.47-7.57,16.43-13.36l21.93-1.58Z"/>
    <path class="cls-1" d="M816.93,264.58c.67,2.52-1.73,2.61-3.45,3.29-22.75,8.96-65.45,3.37-82.26-15.82,5.33,1.54,9.02,5.89,14.08,8.38,21.78,10.72,48.87,12.35,71.64,4.15Z"/>
    <path class="cls-1" d="M495.99,251c-4.17,5.93-12.14,10.5-18.83,13.04-20.96,7.94-45.8,9.48-66.89,1.56l.54-2.09c4.4,2.05,8.89,3.33,13.7,4.07,19.05,2.94,40.06.33,57.41-8.21,5.06-2.49,8.75-6.84,14.08-8.38Z"/>
    <path class="cls-1" d="M502.63,165.97c6.09,5.72,25,15.41,33.24,17.46,10.09,2.51,24.52,3.59,34.86,2.76,4.33-.35,8.71-3.29,13.07-1.56-2.19,1.47-6.63,3.03-9.13,3.41-20.49,3.17-44.92-2.58-62.66-13.16-4.51-2.69-12.97-7.31-12.37-12.71,1.43.89,1.93,2.81,2.99,3.81Z"/>
    <path class="cls-1" d="M722.85,164.26c-.66,1.67-2.38,3.01-3.83,4-16.99,11.55-40.04,17.16-60.5,15.89-2.83-.18-19.16-3.04-20.34-4.24-.56-.57-.77-2.2,1.31-1.84,6.13,1.07,12.22,2.07,18.18,3.89l16.52.09c9.37-1.41,16.34-2.49,25.34-6.11,8.11-3.27,15.29-8.39,23.33-11.67Z"/>
    <path class="cls-1" d="M643.39,185.16c4.62-.78,8.75,1.72,13.08,2.07,26.23,2.11,52.84-5.54,71.59-24.03-.81,5.67-7.13,9.2-11.57,11.93-17.89,11.03-43.1,17.2-63.96,13.94-2.23-.35-7.81-1.83-9.14-3.92Z"/>
    <path class="cls-1" d="M589.02,176.8c.47,2.67-.41,1.88-2.09,2.56-22.99,9.21-58.72,1.49-78.75-12.14-1.45-.99-3.17-2.33-3.83-4,8.05,3.28,15.23,8.41,23.33,11.67,14.25,5.74,26.54,5.97,41.85,6.02l19.48-4.12Z"/>
    <path class="cls-1" d="M758.4,440.15c-.12-4.12,1.73-7.99,2.06-12.04,1.14-13.9,2.17-25.92,1.08-39.72-.09-1.15-.77-3.89,1.02-3.63,3.43,10.67,4.14,20.63,3.14,31.85-.62,6.87-1.73,19.18-7.29,23.53Z"/>
    <path class="cls-1" d="M813.79,262.5c.25,1.48-1.85,1.51-2.9,1.78-24.57,6.12-58.83.5-78.55-15.98-1.44-1.21-3.52-2.39-3.22-4.61.58-.57,12.3,7.54,13.94,8.53,17.35,10.48,33.78,13.7,54.57,12.41,5.42-.34,10.59-2.84,16.16-2.12Z"/>
    <path class="cls-1" d="M498.07,242.64c2.03,2.03-12.39,10.84-13.93,11.67-6.58,3.54-16.23,7.13-23.48,8.93-15.59,3.86-31.62,2.24-47.25-.75-.28-1.75,2.53-1.13,3.68-1.07,28.61,1.62,41.09,5.44,67.05-10.24,1.63-.98,13.36-9.1,13.94-8.53Z"/>
    <path class="cls-1" d="M548.27,409.84c6.79,3.11,16.65-1.97,21.64-6.58.88-.81.76-2.66,1.63-3.58,2.4-2.51,7.24-2.78,8.07-8.16l2.1,1.09-12.57,18.76c-7.33.24-17.19,9.03-20.87-1.54Z"/>
    <path class="cls-1" d="M652.8,192.48c2.35,0,4.32,1,6.75,1.08,8.87.3,22.28-1.46,30.94-3.65,10.98-2.78,21.32-7.2,30.25-14.16,2.54,2.6-14.89,11.54-16.5,12.23-11.7,5.03-29.77,7.46-42.53,7.7-3.15.06-7.34.16-8.91-3.2Z"/>
    <path class="cls-1" d="M574.39,191.43c-1.57,3.36-5.76,3.26-8.91,3.2-12.76-.23-30.84-2.67-42.53-7.7-1.61-.69-19.04-9.64-16.5-12.23,8.94,6.97,19.28,11.38,30.25,14.16,8.66,2.19,22.07,3.95,30.94,3.65,2.42-.08,4.4-1.08,6.75-1.08Z"/>
    <path class="cls-1" d="M727.02,96.33c.74,3.15-.61,1.3-1.72,1.48-9.6,1.52-19.83.79-28.07,6.88-2.13,1.58-10.27,9.81-11.08,11.99-1.95,5.25,2.27,11.84,2.19,17.26l-3.08-.03c-2.35-6.53-4.15-14.73.49-20.85,1.53-2.02,11.08-10.45,13.35-11.74,8.05-4.55,18.85-5.27,27.92-5Z"/>
    <path class="cls-1" d="M541.94,132.87l-3.08.03c-.08-5.42,4.15-12.01,2.19-17.26-.81-2.18-8.95-10.41-11.08-11.99-8.24-6.09-18.48-5.36-28.07-6.88-1.11-.18-2.46,1.68-1.72-1.48,9.07-.27,19.87.45,27.92,5,2.27,1.28,11.82,9.72,13.35,11.74,4.65,6.12,2.84,14.32.49,20.85Z"/>
    <path class="cls-1" d="M436.39,220.68c-1.07,1.32-1.85-.04-2.36-1.29-1.86-4.52-.49-12.65-4.89-16.78-1.04-.98-14.22-5.74-16.26-5.97-3.27-.36-7.03.13-10.37.09l-18.37,4.62c7.91-5.16,19.19-7.96,28.66-6.71,2.77.37,13.55,4.41,16.25,5.71,6.78,3.26,8.34,13.65,7.36,20.33Z"/>
    <path class="cls-1" d="M843.07,202.91c-10.59-3.3-21.86-7.36-32.99-4.23-1.36.38-11.55,4.53-12.03,4.97-4.4,4.12-3.03,12.26-4.89,16.78-.51,1.25-1.3,2.61-2.36,1.29-.98-6.68.58-17.07,7.36-20.33,2.69-1.29,13.48-5.34,16.25-5.71,8.56-1.13,22.1,1.44,28.66,7.22Z"/>
    <path class="cls-1" d="M806.47,272.95c-.21,1.61-3.51,2.68-4.81,3.01-17.6,4.45-42.3-.43-58.63-8.05-2.1-.98-4.61-2.05-5.55-4.37,6.6,1.87,14.21,6.27,20.7,8.04,15.26,4.15,32.89,4.81,48.3,1.37Z"/>
    <path class="cls-1" d="M489.71,262.5c-.94,2.32-3.45,3.39-5.55,4.37-3.95,1.84-13.52,4.92-17.93,6.11-15.22,4.13-30.6,5.98-45.51-.06-.25-1.95,2.07-.73,3.17-.56,15.71,2.52,29.64,2.53,45.13-1.83,6.75-1.9,13.99-5.91,20.7-8.04Z"/>
    <path class="cls-1" d="M708.21,189.34c-11.05,10.25-30.45,12.55-44.95,9.38l30.56-3.39,14.38-5.99Z"/>
    <path class="cls-1" d="M561.84,197.7l-11.14,1.68c-10.65-1.61-24.13-2.82-31.71-11.09,5.13,2.17,8.98,4.44,14.6,5.77,9.14,2.16,18.97,2.36,28.26,3.63Z"/>
    <path class="cls-1" d="M789.75,280.26c.24,1.51-1.84,1.45-2.92,1.75-9.76,2.77-29.9-.93-37.84-8.02,13.48,3.04,26.64,9.3,40.77,6.27Z"/>
    <path class="cls-1" d="M478.21,272.95c-10.98,8.62-27.5,10.02-40.76,7.29-.24-1.86,2.36-1.02,3.52-.91,3.05.3,4.75,1.17,8.38.82,9.5-.92,19.5-5.41,28.87-7.21Z"/>
    <path class="cls-1" d="M842.01,197.69c-10.64-4.81-22.12-7.14-33.66-3.87-2.1.6-4.6,4.11-7.1,2.31,2.73-3.2,11.04-5.86,15.1-5.79,4.51.07,17.22,1.44,21.31,2.82,2.03.69,4.66,1.89,4.34,4.53Z"/>
    <path class="cls-1" d="M425.94,195.59c-4.66-.73-7.25-3.2-12.32-3.87-10.74-1.43-18.58,1.19-28.46,4.4.21-2.68,3.07-3.59,5.18-4.23,3.79-1.15,17.51-2.73,21.46-2.61,3.45.11,12.54,2.82,14.15,6.32Z"/>
    <path class="cls-1" d="M540.93,106.77c-10.08-10.85-24.06-15.09-38.67-15.15,1.08-1.08,1.82-2.42,3.58-2.53,2.65-.17,19.96,4.79,23.12,6.14,2.06.88,13.78,9.62,11.97,11.54Z"/>
    <path class="cls-1" d="M724.94,93.18c-14.45-1.14-28.77,4.18-38.67,14.64-1.81-1.92,9.91-10.66,11.97-11.54,3.15-1.35,20.49-6.32,23.12-6.14,1.61.11,3.08,1.55,3.58,3.04Z"/>
    <path class="cls-1" d="M466.71,164.24c-5.09-2.18-10.17-4.1-15.37-6.04-3.36-1.26-4.38-3.77-8.9-2.6l-10.22-3.88c11.91,1.5,25.44,4.13,34.49,12.52Z"/>
    <path class="cls-1" d="M794.98,152.77l-10.22,3.88c-4.52-1.18-5.54,1.34-8.9,2.6-5.2,1.94-10.28,3.86-15.37,6.04,9.05-8.39,22.58-11.02,34.49-12.52Z"/>
    <path class="cls-1" d="M709.25,128.73c-4.93,7.59-12.62,12.25-21.95,9.38.76-2.57,5.3-1.04,7.21-1.63,5.23-1.63,9.78-5.57,14.74-7.75Z"/>
    <path class="cls-1" d="M539.89,136.05l-6.96,2.01c-2.96,1.69-16.29-9.19-14.99-10.37,4.96,2.18,9.5,6.13,14.74,7.75,1.94.6,4.99-.29,7.21.61Z"/>
    <path class="cls-1" d="M437.44,223.83l-10.09,4.92c-4.52-1.68-10.16-1.36-13.94-4.42,5.23-1.25,11.23,1.8,16.36,1.26,2.27-.24,4.59-2.85,7.68-1.76Z"/>
    <path class="cls-1" d="M813.8,224.88c-.29,1.66-2,1.97-3.34,2.4-9.14,2.91-12.28,2.86-20.71-1.88.04-2.28,6.84,1.16,7.69,1.25,4.58.48,11.56-1.74,16.36-1.76Z"/>
    <path class="cls-1" d="M656.98,74.38l-18.8,17.76c.34-2.21,2.75-5.16,4.21-6.8,3.23-3.67,10.03-9.46,14.6-10.96Z"/>
    <path class="cls-1" d="M738.93,225.53c.65.97,3.53,1.88,2.73,4.56-4.54-1.16-5.03-4.79-7.28-7.9-.72-1-2.76-1.3-2.97-1.66s.79-1.75.55-2.28c-.98-2.09-3.5-2.99-2.82-5.93,4.38,2.98,6.86,8.81,9.8,13.2Z"/>
    <path class="cls-1" d="M582.08,82.37c1.7,1.7,6.46,4.18,5.39,7.67l-17.25-16.71c5.1,1.31,8.49,5.65,11.86,9.04Z"/>
    <path class="cls-1" d="M708.21,74.39l-23,12.52c5.07-6.85,14.93-10.64,23-12.52Z"/>
    <path class="cls-1" d="M541.98,85.86l-23-12.52c8.07,1.88,17.93,5.67,23,12.52Z"/>
    <path class="cls-1" d="M495.79,219.48c-.21.36-2.25.66-2.97,1.66-2.26,3.12-2.73,6.74-7.28,7.9l12.02-17.76c1.97,2.42-1.67,4.06-2.31,5.92-.22.63.75,1.93.55,2.28Z"/>
    <path class="cls-1" d="M601.57,148.59c-1.62.87-4.95,5.62-5.51,5.97-.94.59-2.69.2-3.8.87-2.7,1.62-4.79,4.04-8.45,4.64-.59-2.58,1.48-2.27,2.6-3.14,4.08-3.17,10.12-8.05,15.16-8.35Z"/>
    <path class="cls-1" d="M419.67,174.71c-.06,1.81.7,2.19-1.31,1.84-8.25-1.43-16.45-2.88-24.82-3.42,1.97-1.34,7.2-1.09,9.54-.95,5.64.34,11.08,1.51,16.59,2.52Z"/>
    <path class="cls-1" d="M643.38,161.12c-3.67-.61-5.76-3.03-8.45-4.64-1.11-.67-2.85-.28-3.8-.87-.57-.35-3.89-5.11-5.51-5.97,5.04.3,11.09,5.18,15.16,8.35,1.12.87,3.19.56,2.6,3.14Z"/>
    <path class="cls-1" d="M833.66,174.69c-8.87-.67-17.45,1.79-26.13,3.14-.49-2.83.52-1.8,2.27-2.37,6.17-2,14.43-2.38,20.94-2.15,1.25.05,2.32-1.08,2.91,1.38Z"/>
    <path class="cls-1" d="M423.85,213.36c-1.44-.14-19.89-3.26-16.72-6.26,6.19,1.44,12.58.3,16.72,6.26Z"/>
    <path class="cls-1" d="M820.06,208.15c3.17,3-15.28,6.12-16.72,6.26,4.14-5.96,10.53-4.82,16.72-6.26Z"/>
    <path class="cls-1" d="M707.87,114.8c-1.44,1.52-4.59,2.35-6.3,3.62-1.98,1.48-2.86,4.48-5.9,5.06,1.32-8.44,8.09-8.01,13.06-12.53,1.4.66-.22,3.16-.87,3.84Z"/>
    <path class="cls-1" d="M520.63,111.42c2.87,1.99,4.74,1.85,6.41,2.99.75.51,5.22,7.19,4.48,8.04-3.03-.58-3.92-3.59-5.9-5.06-2.85-2.13-7.99-2.71-7.67-7.48.24-.29,2.17,1.16,2.68,1.51Z"/>
    <path class="cls-1" d="M406.07,186.2c.43,2.91-.49,1.96-2.59,2.09-5.76.36-11.54.27-17.27,1.03,4.98-5.98,13.46-1.39,19.86-3.12Z"/>
    <path class="cls-1" d="M840.98,190.37c-5.73-.76-11.51-.67-17.27-1.03-2.09-.13-3.02.82-2.59-2.09,6.39,1.73,14.87-2.86,19.86,3.12Z"/>
    <path class="cls-1" d="M720.75,85.88c-1.86,3.27-7.64,2.72-10.57,3.75s-4.7,4.16-8.25,3.55c-.53-2.78.59-1.82,2.09-2.55,5.04-2.46,11.01-5.25,16.72-4.75Z"/>
    <path class="cls-1" d="M525.26,90.07c.22,5.36-6.14-.72-7.64-1.27-3.22-1.16-9.06-.63-11.17-3.96,7.08-1.08,12.23,3.97,18.82,5.23Z"/>
    <path class="cls-1" d="M648.62,169.49c.33,2.53-.17,2.35-2.4,1.87-3.33-.72-9.22-2.83-12.7-4.04-1.71-.6-3.06-.71-2.68-3.06l17.77,5.23Z"/>
    <path class="cls-1" d="M596.34,163.21c.39,2.35-.96,2.47-2.68,3.06-4.82,1.67-10.09,3.14-15.08,4.24-.53-2.96.7-1.72,2.29-2.35,5.03-2,10.57-2.45,15.47-4.95Z"/>
    <path class="cls-1" d="M741.65,241.59c-3.65-1.6-5.95-4.89-8.87-7.32-2.33-1.95-5.85-.72-4.7-6.26.99,2.51,15.53,11.41,13.57,13.59Z"/>
    <path class="cls-1" d="M485.54,240.54c-1.96-2.18,12.58-11.07,13.57-13.59,1.15,5.54-2.37,4.31-4.7,6.26-2.91,2.44-5.21,5.72-8.87,7.32Z"/>
  </g>
  <path class="cls-1" d="M201.57,709.16c0,6.45-2.98,10.44-5.34,12.42-1.93,1.68-5.53,3.51-7.22,4.04-1.97.67-3.99,1.16-5.53,1.16-8.33,0-14.2-5.2-14.2-14.39,0-4.52,1.64-8.28,4.28-11.07,1.35-1.4,4.04-3.22,6.93-4.52,2.6-1.16,5.58-1.73,7.8-1.73,8.61,0,13.28,6.21,13.28,14.1ZM177.98,699.82c-2.12,1.73-4.09,4.72-4.09,10.44,0,8.9,5.34,14.05,12.56,14.05,1.83,0,4.23-.53,6.06-1.83,2.6-1.83,4.52-4.96,4.52-11.07,0-8.33-4.52-14.05-11.94-14.05-2.94,0-5.49,1.06-7.12,2.45Z"/>
  <path class="cls-1" d="M244.02,695.01c.34-.19.43.05.34.38-.58,1.64-1.01,4.04-.96,6.93.05.43-.14.48-.38.38-.34-.19-1.01-.96-1.16-1.3-.53-1.06-.72-2.02-.91-2.94-.14-.48-.39-.67-.77-.62-1.4.29-4.09.53-7.84.53-.72,0-1.01.19-.96.72.05,2.94,0,6.83,0,10.06,0,.53.29.77.58.82,1.11.38,3.51.53,6.11.53,1.64,0,2.26-.14,3.13-1.16.34-.34,1.06-.91,1.97-1.2.39-.19.48-.05.39.24-.72,2.17-1.06,4.86-1.01,7.65,0,.38-.19.48-.58.14-.29-.19-.67-.67-.82-1.01-.29-.67-.53-1.54-.72-2.31-.14-.43-.24-.67-.72-.58-1.44.19-4.67.38-7.8.38-.39,0-.58.19-.58,1.06,0,2.79.05,5.92,0,8.71,0,.53.1.96.87,1.06,1.35.1,3.9.48,4.72.72.19.1.29.24.1.38-1.2,1.01-1.97,1.35-2.31,1.3-1.2-.1-2.31-.29-5.77-.29-3.9,0-6.21.34-7.22.48-.48.1-.53.05-.34-.29.34-.48,1.06-1.01,1.54-1.25.63-.29,1.78-.63,2.79-.82.43-.14.67-.34.87-.87.39-.96.63-5.29.63-9.96,0-.24-.1-.48-.29-.58-.38-.1-.63-.24-.96-.43-.19-.14-.24-.24,0-.58.29-.43.77-1.01,1.06-1.35.1-.1.24-.29.24-.77-.05-5.49-.24-9.38-.77-10.59-.14-.29-.29-.43-.72-.53-1.11-.14-3.03-.43-3.95-.63-.58-.1-.63-.24-.34-.43.77-.48,2.31-1.4,2.69-1.3,1.93.39,6.74.53,12.46.53,3.85,0,6.16-.48,7.41-1.25Z"/>
  <path class="cls-1" d="M316.88,717.48c2.31-3.8,8.33-14.53,10.35-18.67.34-.72.63-1.49.87-2.12.1-.29.34-.43.82-.43,3.22,0,7.27-.14,9.29-.48.29-.05.34.05.14.34-.53.72-1.06,1.06-1.64,1.35-.82.29-2.02.58-3.13.77-.67.14-1.2.34-1.44,1.01-.43,1.2-.48,4.72-.38,8.71.19,8.52.34,13.23.82,14.77.19.58.48.72.96.77,1.4.1,3.61.38,4.19.58.29.1.34.19.1.43-.82.62-1.83,1.35-2.12,1.3-1.01-.05-2.41-.19-4.48-.19-3.18,0-5.92.29-7.27.58-.34.1-.43-.05-.24-.24.29-.38.63-.77,1.2-1.16.38-.24,1.25-.58,1.97-.82.48-.19.67-.38.72-.96.05-3.03.1-15.26.19-20.69,0-.29-.24-.43-.48,0-2.65,4.72-8.33,15.3-9.72,18.58-.96,2.31-2.12,3.61-3.22,5.1-.43.63-.77.53-.72-.14.05-1.01-.34-2.69-1.3-5.1-2.45-6.4-6.3-13.96-8.66-18.43-.24-.38-.58-.38-.58-.1-.38,7.36-1.06,15.74-1.3,20.21-.05.77.38.96.77,1.01,1.3.19,3.18.43,3.9.67.34.1.38.24.14.48-.43.38-1.78,1.3-2.17,1.25-1.11-.14-2.21-.24-4.33-.24-2.31,0-5.49.29-6.59.48-.24.1-.38.05-.19-.24.24-.43,1.01-1.06,1.44-1.3.43-.24,1.59-.58,2.98-.87.53-.14.77-.38,1.06-1.01,1.01-2.41,2.36-14.77,2.55-21.18.05-1.73-.05-3.22-1.4-3.37-1.83-.19-3.85-.34-4.96-.53-.43-.1-.43-.29-.14-.43,1.68-.92,2.02-1.16,2.31-1.11,2.17.19,6.21.19,7.46-.14.39-.14.48,0,.58.29.24,1.25,1.59,3.75,3.56,7.51,2.65,4.96,5.53,10.35,7.32,13.57.34.53.53.58.77.19Z"/>
  <path class="cls-1" d="M369.39,715.94c-.43-.1-.77.24-.96.58-.63,1.44-2.45,4.91-2.89,5.97-.19.48-.19.96.48,1.06,1.11.14,3.08.48,3.75.67.34.1.39.24.14.48-.63.53-1.73,1.2-2.02,1.15-.82-.1-2.41-.24-4.52-.24-2.41,0-4.57.24-5.78.43-.43.05-.43-.14-.14-.43.29-.34.63-.67,1.11-.96.39-.24,1.54-.58,2.36-.82.63-.14.91-.39,1.54-1.11.96-1.11,2.6-3.99,3.8-6.69.19-.43.24-.58-.1-.96-.19-.24-.19-.34,0-.58.29-.34.91-.96,1.35-1.4.14-.14.34-.38.58-.87,2.02-4.38,3.8-8.62,4.52-10.59.53-1.35.82-2.12.96-2.74s.29-1.49.58-1.78c.63-.58,2.26-1.97,3.13-2.31.19-.05.48-.05.29.38-.19.53-.29,1.68-.14,2.55.19,1.2.72,2.84,1.4,4.86,2.12,6.5,5.39,14.34,7.51,18.29,1.11,1.97,2.12,2.89,3.37,3.08.91.24,2.07.34,2.74.34.48,0,.43.24,0,.63-.96.87-2.02,1.01-3.8.96-1.25,0-3.47-.14-4.86-.14-1.11-.05-1.88,0-2.5.14-.43.1-.53-.14-.19-.53.24-.34.48-.63.96-1.06.34-.34.34-.77.14-1.25-.58-1.64-2.21-5.29-3.08-7.51-.14-.38-.34-.58-.72-.43-1.4.53-3.71.91-5.73.96-1.3,0-2.17-.05-3.27-.14ZM377.53,713.59c.67-.14.77-.34.63-.72-1.73-4.91-2.84-8.23-3.42-10.2-.1-.24-.38-.53-.63.05-.91,2.45-2.74,7.07-3.95,9.96-.14.43.1.53.43.63.82.29,2.02.43,4.33.43.67,0,2.26-.1,2.6-.14Z"/>
  <path class="cls-1" d="M436.24,702.9c0,2.84-1.4,4.62-2.69,5.68-1.06.82-2.02,1.44-3.03,1.97-.29.19-.29.63-.05,1.11,1.83,3.71,5.39,9,7.84,11.26,1.64,1.44,3.18,1.92,5.2,1.97.39,0,.43.14.14.43-.24.24-.67.53-1.11.63-.67.19-1.25.29-2.65.29-3.03,0-5.05-.96-6.88-3.03-2.02-2.36-4.67-6.21-6.59-9.29-.72-1.06-1.78-1.4-2.84-1.4-.48,0-.91,0-1.4.14-.38.05-.53.29-.53.87,0,2.12-.1,6.93-.1,8.66,0,1.11.34,1.3.82,1.4.96.1,3.32.34,4.04.58.34.1.38.24.1.48-.63.53-1.68,1.25-2.02,1.2-1.2-.1-2.84-.24-4.48-.24-3.13,0-6.4.34-7.89.58-.38.14-.48-.1-.29-.29.43-.53,1.06-1.06,1.59-1.25.48-.24,1.54-.58,2.36-.77.63-.14.96-.34,1.16-.87.43-1.54.67-5.63.67-13.09,0-6.59-.24-10.25-.48-11.17-.14-.67-.39-.77-.87-.77-.96,0-3.27.38-4.33.58-.34.05-.38-.1-.24-.29.34-.38,1.01-1.01,1.59-1.2,1.88-.62,8.04-1.83,12.46-1.83,7.75,0,10.49,3.08,10.49,7.65ZM422.24,697.56c-.29.1-.48.29-.48.77l-.1,11.89c0,.67.14.87,1.59.87,4.48,0,8.57-1.54,8.57-6.69,0-4.38-2.89-7.07-7.51-7.07-.91,0-1.68.1-2.07.24Z"/>
  <path class="cls-1" d="M471.81,715.94c-.43-.1-.77.24-.96.58-.63,1.44-2.45,4.91-2.89,5.97-.19.48-.19.96.48,1.06,1.11.14,3.08.48,3.75.67.34.1.39.24.14.48-.63.53-1.73,1.2-2.02,1.15-.82-.1-2.41-.24-4.52-.24-2.41,0-4.57.24-5.78.43-.43.05-.43-.14-.14-.43.29-.34.63-.67,1.11-.96.39-.24,1.54-.58,2.36-.82.63-.14.91-.39,1.54-1.11.96-1.11,2.6-3.99,3.8-6.69.19-.43.24-.58-.1-.96-.19-.24-.19-.34,0-.58.29-.34.91-.96,1.35-1.4.14-.14.34-.38.58-.87,2.02-4.38,3.8-8.62,4.52-10.59.53-1.35.82-2.12.96-2.74s.29-1.49.58-1.78c.63-.58,2.26-1.97,3.13-2.31.19-.05.48-.05.29.38-.19.53-.29,1.68-.14,2.55.19,1.2.72,2.84,1.4,4.86,2.12,6.5,5.39,14.34,7.51,18.29,1.11,1.97,2.12,2.89,3.37,3.08.91.24,2.07.34,2.74.34.48,0,.43.24,0,.63-.96.87-2.02,1.01-3.8.96-1.25,0-3.47-.14-4.86-.14-1.11-.05-1.88,0-2.5.14-.43.1-.53-.14-.19-.53.24-.34.48-.63.96-1.06.34-.34.34-.77.14-1.25-.58-1.64-2.21-5.29-3.08-7.51-.14-.38-.34-.58-.72-.43-1.4.53-3.71.91-5.73.96-1.3,0-2.17-.05-3.27-.14ZM479.95,713.59c.67-.14.77-.34.63-.72-1.73-4.91-2.84-8.23-3.42-10.2-.1-.24-.38-.53-.63.05-.91,2.45-2.74,7.07-3.95,9.96-.14.43.1.53.43.63.82.29,2.02.43,4.33.43.67,0,2.26-.1,2.6-.14Z"/>
  <path class="cls-1" d="M539.19,695.92c.67-.62,1.73-1.3,2.79-1.88.38-.19.63-.1.48.34-.82,2.02-1.44,5.54-1.3,8.62.05.72-.1.87-.58.53-.39-.34-.96-1.01-1.2-1.78-.29-.82-.53-2.31-.67-3.27-.05-.43-.19-.58-.67-.58-1.16.19-4.09.63-7.99.67-.53,0-.58.1-.67,1.01-.14,2.07-.19,6.16-.19,11.02,0,8.62.14,10.78.29,11.79.1.53.29.87.82.96,1.54.14,4.43.53,5.29.82.29.14.39.24.14.43-.72.53-1.88,1.44-2.21,1.4-1.35-.14-3.61-.38-6.55-.38-4.33,0-7.7.38-9.34.77-.29.05-.34-.14-.1-.39.34-.38.96-1.01,1.49-1.25,1.01-.48,2.79-.87,4.33-1.16.58-.1.87-.48,1.06-1.11.24-.92.63-5.87.63-13.67,0-4.33-.1-7.89-.24-9-.14-.96-.29-1.25-.72-1.25-3.32,0-6.83-.19-7.75-.29-.63,0-.82.34-1.11,1.16-.43,1.35-1.06,2.45-1.64,3.27-.34.48-.87,1.06-1.35,1.35-.38.24-.58.24-.48-.14.67-1.92,1.4-5.49,1.44-8.13,0-.24.43-.82,1.3-1.73.19-.19.34-.29.43,0,.29,1.06.53,1.35.96,1.54.87.43,4.19,1.01,11.84,1.01s10.64-.29,11.45-.67Z"/>
  <path class="cls-1" d="M568.31,698.81c-.1-.53-.48-.67-1.15-.72-1.06-.1-2.79-.29-3.66-.48-.24-.05-.24-.24-.14-.34,1.3-.77,2.07-1.3,2.31-1.3.63.05,2.74.29,5.34.29,2.84,0,4.52-.19,6.4-.43.29-.05.34.14.19.29-.19.43-.91,1.01-1.4,1.2-.77.29-1.35.43-2.02.58-.58.1-.91.38-1.01.96-.14.77-.29,2.74-.29,6.83v2.26c0,.58.29.87.96,1.01.82.19,3.61.43,7.84.43,3.75,0,6.35-.14,7.07-.29.39-.05.58-.39.58-1.3,0-4.09-.05-6.16,0-8.9,0-.48-.34-.63-.77-.67-.91-.1-2.98-.34-3.71-.43-.19-.05-.39-.19-.14-.38.77-.62,1.97-1.44,2.26-1.4,1.44.1,3.08.24,4.38.24,3.75,0,6.02-.34,7.56-.62.29-.1.29.1.19.19-.24.38-.67.96-1.25,1.25-.48.24-1.4.48-2.26.67-.91.24-1.25.48-1.54,1.49-.48,2.02-.63,6.3-.63,11.41,0,6.4.19,10.01.67,11.98.19.72.77.82,1.44.91,1.3.1,2.98.29,3.75.53.34.1.43.19.1.43-.96.77-1.64,1.25-2.07,1.2-.77,0-2.17-.14-4.19-.14-3.13,0-6.5.43-8.04.82-.38.1-.38-.05-.24-.24.1-.29.72-.91,1.06-1.16.67-.43,1.44-.67,2.17-.91.82-.29,1.16-.43,1.16-1.88.1-2.94.1-6.83.1-9.96,0-.72-.24-.96-.58-.92-.77.05-4.96.29-8.37.29s-5.82.05-6.79.1c-.63,0-.72.67-.72,1.44,0,1.2-.1,7.08,0,8.95.1,1.25.38,1.4.91,1.49,1.3.14,3.13.43,3.95.67.24.05.29.19.14.29-.77.72-1.68,1.4-2.07,1.35-1.35-.14-3.03-.29-5.25-.29-2.45,0-5.87.34-7.32.58-.48.05-.38-.1-.24-.34.14-.24.67-.87,1.2-1.11.77-.34,2.02-.67,2.89-.91.53-.14.72-.53.91-1.3.29-1.11.67-5.49.67-10.83,0-4.33.05-10.73-.39-12.9Z"/>
  <path class="cls-1" d="M653.26,709.16c0,6.45-2.98,10.44-5.34,12.42-1.92,1.68-5.53,3.51-7.22,4.04-1.97.67-4,1.16-5.54,1.16-8.33,0-14.2-5.2-14.2-14.39,0-4.52,1.64-8.28,4.28-11.07,1.35-1.4,4.04-3.22,6.93-4.52,2.6-1.16,5.58-1.73,7.8-1.73,8.62,0,13.28,6.21,13.28,14.1ZM629.68,699.82c-2.12,1.73-4.09,4.72-4.09,10.44,0,8.9,5.34,14.05,12.56,14.05,1.83,0,4.24-.53,6.06-1.83,2.6-1.83,4.52-4.96,4.52-11.07,0-8.33-4.52-14.05-11.94-14.05-2.94,0-5.49,1.06-7.12,2.45Z"/>
  <path class="cls-1" d="M678.83,699.29c-.34-.96-.92-1.35-2.12-1.44-1.06-.05-2.65-.14-4.24-.14-.29,0-.34-.14-.14-.34.62-.63,1.59-1.2,2.07-1.25,1.78-.1,5.1-.39,6.69-.39.53-.05,1.01.39,1.35.82,4.33,5.87,16.36,21.03,18.96,22.76.43.29.67.24.72-.1.05-2.89,0-7.7,0-11.12,0-4-.1-7.8-.24-8.95-.1-.67-.38-.77-1.11-.82-1.35-.14-3.03-.34-3.85-.53-.24-.05-.38-.14-.19-.34.58-.43,2.07-1.49,2.41-1.49.87.1,1.92.29,3.95.29,3.08,0,5.44-.38,6.64-.62.34-.05.34.05.19.34-.24.38-.87,1.06-1.4,1.3-.72.29-1.83.63-2.55.77-.53.14-.82.48-1.01,1.25-.43,1.44-.82,5.68-.82,12.99,0,5.05.19,12.61.29,13.96.05.58-.05.82-.43.77-1.4,0-3.22-1.3-5.1-3.46-4.14-4.67-11.89-14.49-16.6-20.55-.53-.63-.96-.43-.96.34-.05,1.83-.14,6.54-.14,11.65.05,3.27.1,5.53.14,7.12.05,1.01.48,1.35,1.2,1.44,1.16.14,2.79.38,3.37.53.34.1.43.19.14.48-.63.53-1.78,1.35-2.17,1.3-1.01-.1-2.41-.24-4.24-.24-2.21,0-5.29.24-6.74.53-.38.1-.48,0-.29-.29.29-.38.92-.96,1.35-1.2.63-.29,1.4-.53,2.55-.82.91-.24,1.35-.53,1.68-1.49.63-1.64,1.16-7.94,1.16-15.88,0-4.14-.05-5.97-.53-7.17Z"/>
  <path class="cls-1" d="M786.08,696.41c.91.48,1.73,1.16,1.73,1.88.05.29,0,.77-.19,1.16-.48,1.06-.92,2.21-1.2,3.27-.14.53-.53,1.01-.82,1.11-.14.05-.29,0-.29-.34-.1-2.07-.34-3.08-.87-3.75-.62-.82-2.55-2.6-7.51-2.6-3.66,0-6.69,1.3-8.33,2.79-1.83,1.64-4.09,5-4.09,10.64,0,4.81,1.54,7.94,3.51,10.11,2.31,2.55,6.16,3.9,9.91,3.9,2.98,0,4.48-.82,5.49-1.49,1.54-1.11,2.98-2.94,4.09-4.96.1-.19.19-.29.34-.19.24.1.43.72.34,1.2-.19,1.06-1.11,3.37-2.17,4.81-.48.58-1.11.96-1.68,1.25-1.73.72-5.54,1.59-8.81,1.59-8.52,0-15.88-4.14-15.88-14.53,0-6.02,2.7-10.16,6.64-12.95,3.27-2.45,8.52-4.24,12.9-4.24,3.46,0,5.53.63,6.88,1.35Z"/>
  <path class="cls-1" d="M842.19,709.16c0,6.45-2.98,10.44-5.34,12.42-1.92,1.68-5.53,3.51-7.22,4.04-1.97.67-4,1.16-5.54,1.16-8.33,0-14.2-5.2-14.2-14.39,0-4.52,1.64-8.28,4.28-11.07,1.35-1.4,4.04-3.22,6.93-4.52,2.6-1.16,5.58-1.73,7.8-1.73,8.62,0,13.28,6.21,13.28,14.1ZM818.61,699.82c-2.12,1.73-4.09,4.72-4.09,10.44,0,8.9,5.34,14.05,12.56,14.05,1.83,0,4.24-.53,6.06-1.83,2.6-1.83,4.52-4.96,4.52-11.07,0-8.33-4.52-14.05-11.94-14.05-2.94,0-5.49,1.06-7.12,2.45Z"/>
  <path class="cls-1" d="M875.21,721.58c1.73,1.73,4.38,2.5,6.79,2.5,2.79,0,5.29-.87,6.79-2.65,1.88-2.26,2.6-5.87,2.6-13.62,0-4.09-.19-7.32-.53-8.61-.19-.63-.48-.82-1.01-.87-1.25-.14-3.13-.39-3.95-.53-.39-.1-.43-.24-.19-.43.67-.48,2.17-1.44,2.46-1.4.62.1,2.36.29,4.19.29,3.13,0,5.05-.29,6.4-.58.38-.1.38.1.14.38-.24.43-.91,1.01-1.3,1.25-.58.29-1.44.58-2.84.87-.58.1-.82.34-.87,1.25-.1,1.35-.14,4.09-.19,6.64-.1,8.71-.82,14.2-4.91,17.57-2.45,2.21-5.77,3.13-9.14,3.13-3.75,0-7.03-1.35-8.76-3.32-2.36-2.69-3.08-5.68-3.08-12.13,0-3.99,0-8.18-.05-10.88,0-1.2-.14-2.02-.62-2.07-1.16-.14-2.98-.38-4.09-.63-.48-.1-.38-.29-.14-.43,1.01-.82,2.21-1.44,2.45-1.4.87.1,2.07.34,4.52.34,3.13,0,5.63-.24,7.51-.58.34-.05.34.05.14.34-.24.38-.77,1.06-1.2,1.25-.72.34-1.59.58-2.7.82-.63.14-.87.43-1.06.96-.24.87-.43,3.13-.43,11.02,0,7.27,1.4,9.82,3.08,11.5Z"/>
  <path class="cls-1" d="M923.83,699.29c-.34-.96-.92-1.35-2.12-1.44-1.06-.05-2.65-.14-4.24-.14-.29,0-.34-.14-.14-.34.62-.63,1.59-1.2,2.07-1.25,1.78-.1,5.1-.39,6.69-.39.53-.05,1.01.39,1.35.82,4.33,5.87,16.36,21.03,18.96,22.76.43.29.67.24.72-.1.05-2.89,0-7.7,0-11.12,0-4-.1-7.8-.24-8.95-.1-.67-.38-.77-1.11-.82-1.35-.14-3.03-.34-3.85-.53-.24-.05-.38-.14-.19-.34.58-.43,2.07-1.49,2.41-1.49.87.1,1.93.29,3.95.29,3.08,0,5.44-.38,6.64-.62.34-.05.34.05.19.34-.24.38-.87,1.06-1.4,1.3-.72.29-1.83.63-2.55.77-.53.14-.82.48-1.01,1.25-.43,1.44-.82,5.68-.82,12.99,0,5.05.19,12.61.29,13.96.05.58-.05.82-.43.77-1.4,0-3.22-1.3-5.1-3.46-4.14-4.67-11.89-14.49-16.6-20.55-.53-.63-.96-.43-.96.34-.05,1.83-.14,6.54-.14,11.65.05,3.27.1,5.53.14,7.12.05,1.01.48,1.35,1.2,1.44,1.16.14,2.79.38,3.37.53.34.1.43.19.14.48-.63.53-1.78,1.35-2.17,1.3-1.01-.1-2.41-.24-4.24-.24-2.21,0-5.29.24-6.74.53-.38.1-.48,0-.29-.29.29-.38.92-.96,1.35-1.2.63-.29,1.4-.53,2.55-.82.91-.24,1.35-.53,1.68-1.49.63-1.64,1.16-7.94,1.16-15.88,0-4.14-.05-5.97-.53-7.17Z"/>
  <path class="cls-1" d="M1001.04,695.92c.67-.62,1.73-1.3,2.79-1.88.38-.19.63-.1.48.34-.82,2.02-1.44,5.54-1.3,8.62.05.72-.1.87-.58.53-.38-.34-.96-1.01-1.2-1.78-.29-.82-.53-2.31-.67-3.27-.05-.43-.19-.58-.67-.58-1.16.19-4.09.63-7.99.67-.53,0-.58.1-.67,1.01-.14,2.07-.19,6.16-.19,11.02,0,8.62.14,10.78.29,11.79.1.53.29.87.82.96,1.54.14,4.43.53,5.29.82.29.14.38.24.14.43-.72.53-1.88,1.44-2.21,1.4-1.35-.14-3.61-.38-6.54-.38-4.33,0-7.7.38-9.34.77-.29.05-.34-.14-.1-.39.34-.38.96-1.01,1.49-1.25,1.01-.48,2.79-.87,4.33-1.16.58-.1.87-.48,1.06-1.11.24-.92.63-5.87.63-13.67,0-4.33-.1-7.89-.24-9-.14-.96-.29-1.25-.72-1.25-3.32,0-6.83-.19-7.75-.29-.63,0-.82.34-1.11,1.16-.43,1.35-1.06,2.45-1.64,3.27-.34.48-.87,1.06-1.35,1.35-.38.24-.58.24-.48-.14.67-1.92,1.4-5.49,1.44-8.13,0-.24.43-.82,1.3-1.73.19-.19.34-.29.43,0,.29,1.06.53,1.35.96,1.54.87.43,4.19,1.01,11.84,1.01s10.64-.29,11.45-.67Z"/>
  <path class="cls-1" d="M1026.38,698.09c-.77-.1-2.07-.29-3.08-.48-.38-.1-.38-.29-.19-.43.82-.63,1.88-1.2,2.17-1.2.91.05,2.74.29,4.86.29s4.62-.14,6.54-.38c.39-.05.39.1.14.38-.48.63-.82.87-1.25,1.06-.67.29-1.25.34-1.73.53-.48.14-.39.48-.19.82,1.68,2.5,5,8.71,6.35,11.41.14.29.38.29.53,0,2.26-3.9,5-8.28,6.79-11.31.19-.34.05-.63-.48-.67-.58-.05-2.07-.29-2.7-.43-.38-.05-.53-.19-.24-.39,1.01-.82,1.88-1.3,2.21-1.3.87.14,2.31.29,3.8.29,2.17,0,4.19-.24,5.73-.43.29-.05.38.05.19.29-.34.58-.96,1.06-1.4,1.2-.67.24-1.92.58-2.55.67-.82.19-1.49.87-2.26,1.73-3.18,3.66-5.97,8.13-7.46,11.07-.82,1.59-.96,2.79-.96,4.86,0,3.18.05,5.49.24,7.07.05.48.24.72.72.77,1.78.14,4.57.53,5.39.82.24.1.34.19.1.39-.82.67-2.07,1.35-2.36,1.3-1.06-.14-3.37-.38-5.97-.38-4.24,0-7.56.38-9.1.58-.29.1-.34-.05-.19-.24.24-.43,1.11-1.06,1.73-1.3.82-.29,2.55-.77,3.95-.96.48-.1.72-.38.87-1.16.19-.96.43-3.51.43-6.74,0-1.93-.1-2.79-.72-4.28-1.97-4.33-5.63-10.01-7.41-11.98-.87-.92-1.4-1.25-2.5-1.44Z"/>
  <path class="cls-1" d="M86.85,597.22c-.15-.85-.77-1.08-1.85-1.16-1.69-.15-4.47-.46-5.85-.77-.39-.08-.39-.38-.23-.54,2.08-1.23,3.31-2.08,3.7-2.08,1,.08,4.39.46,8.55.46,4.54,0,7.24-.31,10.24-.69.46-.08.54.23.31.46-.31.69-1.46,1.62-2.23,1.92-1.23.46-2.16.69-3.23.92-.92.15-1.46.62-1.62,1.54-.23,1.23-.46,4.39-.46,10.93v3.62c0,.92.46,1.39,1.54,1.62,1.31.31,5.77.69,12.55.69,6.01,0,10.16-.23,11.32-.46.62-.08.92-.62.92-2.08,0-6.54-.08-9.86,0-14.24,0-.77-.54-1-1.23-1.08-1.46-.15-4.77-.54-5.93-.69-.31-.08-.62-.31-.23-.62,1.23-1,3.16-2.31,3.62-2.23,2.31.15,4.93.38,7.01.38,6.01,0,9.62-.54,12.09-1,.46-.15.46.15.31.31-.38.62-1.08,1.54-2,2-.77.38-2.23.77-3.62,1.08-1.46.39-2,.77-2.46,2.39-.77,3.23-1,10.09-1,18.25,0,10.24.31,16.01,1.08,19.17.31,1.15,1.23,1.31,2.31,1.46,2.08.15,4.77.46,6.01.85.54.15.69.31.15.69-1.54,1.23-2.62,2-3.31,1.92-1.23,0-3.46-.23-6.7-.23-5,0-10.39.69-12.86,1.31-.62.15-.62-.08-.38-.39.15-.46,1.15-1.46,1.69-1.85,1.08-.69,2.31-1.08,3.46-1.46,1.31-.46,1.85-.69,1.85-3,.15-4.7.15-10.93.15-15.94,0-1.15-.39-1.54-.92-1.46-1.23.08-7.93.46-13.4.46s-9.32.08-10.86.15c-1,0-1.15,1.08-1.15,2.31,0,1.93-.15,11.32,0,14.32.15,2,.62,2.23,1.46,2.39,2.08.23,5,.69,6.31,1.08.39.08.46.31.23.46-1.23,1.16-2.69,2.23-3.31,2.16-2.16-.23-4.85-.46-8.39-.46-3.93,0-9.39.54-11.7.92-.77.08-.62-.15-.38-.54s1.08-1.39,1.92-1.77c1.23-.54,3.23-1.08,4.62-1.46.85-.23,1.15-.85,1.46-2.08.46-1.77,1.08-8.78,1.08-17.32,0-6.93.08-17.17-.62-20.63Z"/>
  <path class="cls-1" d="M188.34,633.64c2.77,2.77,7.01,4,10.86,4,4.47,0,8.47-1.39,10.86-4.23,3-3.62,4.16-9.39,4.16-21.79,0-6.54-.31-11.7-.85-13.78-.31-1-.77-1.31-1.62-1.39-2-.23-5-.62-6.31-.85-.62-.15-.69-.38-.31-.69,1.08-.77,3.46-2.31,3.93-2.23,1,.15,3.77.46,6.7.46,5,0,8.08-.46,10.24-.92.62-.15.62.15.23.62-.39.69-1.46,1.62-2.08,2-.92.46-2.31.92-4.54,1.39-.92.15-1.31.54-1.39,2-.15,2.16-.23,6.54-.31,10.62-.15,13.94-1.31,22.71-7.85,28.1-3.93,3.54-9.24,5-14.63,5-6.01,0-11.24-2.16-14.01-5.31-3.77-4.31-4.93-9.09-4.93-19.4,0-6.39,0-13.09-.08-17.4,0-1.92-.23-3.23-1-3.31-1.85-.23-4.77-.62-6.54-1-.77-.15-.62-.46-.23-.69,1.62-1.31,3.54-2.31,3.93-2.23,1.39.15,3.31.54,7.24.54,5,0,9.01-.38,12.01-.92.54-.08.54.08.23.54-.38.62-1.23,1.69-1.92,2-1.15.54-2.54.92-4.31,1.31-1,.23-1.39.69-1.69,1.54-.39,1.39-.69,5-.69,17.63,0,11.63,2.23,15.71,4.93,18.4Z"/>
  <path class="cls-1" d="M294.29,627.09c3.7-6.08,13.32-23.25,16.55-29.87.54-1.16,1-2.39,1.39-3.39.15-.46.54-.69,1.31-.69,5.16,0,11.63-.23,14.86-.77.46-.08.54.08.23.54-.85,1.15-1.69,1.69-2.62,2.16-1.31.46-3.23.92-5,1.23-1.08.23-1.93.54-2.31,1.62-.69,1.92-.77,7.54-.62,13.94.31,13.63.54,21.17,1.31,23.64.31.92.77,1.16,1.54,1.23,2.23.15,5.77.62,6.7.92.46.15.54.31.15.69-1.31,1-2.93,2.16-3.39,2.08-1.62-.08-3.85-.31-7.16-.31-5.08,0-9.47.46-11.63.92-.54.15-.69-.08-.38-.38.46-.62,1-1.23,1.92-1.85.62-.39,2-.92,3.16-1.31.77-.31,1.08-.62,1.15-1.54.08-4.85.15-24.41.31-33.11,0-.46-.38-.69-.77,0-4.23,7.54-13.32,24.48-15.55,29.72-1.54,3.7-3.39,5.78-5.16,8.16-.69,1-1.23.85-1.15-.23.08-1.62-.54-4.31-2.08-8.16-3.93-10.24-10.09-22.33-13.86-29.49-.39-.62-.92-.62-.92-.15-.62,11.78-1.69,25.18-2.08,32.34-.08,1.23.62,1.54,1.23,1.62,2.08.31,5.08.69,6.24,1.08.54.15.62.38.23.77-.69.62-2.85,2.08-3.46,2-1.77-.23-3.54-.38-6.93-.38-3.7,0-8.78.46-10.55.77-.39.15-.62.08-.31-.38.38-.69,1.62-1.69,2.31-2.08.69-.38,2.54-.92,4.77-1.39.85-.23,1.23-.62,1.69-1.62,1.62-3.85,3.77-23.64,4.08-33.88.08-2.77-.08-5.16-2.23-5.39-2.93-.31-6.16-.54-7.93-.85-.69-.15-.69-.46-.23-.69,2.69-1.46,3.23-1.85,3.7-1.77,3.46.31,9.93.31,11.93-.23.62-.23.77,0,.92.46.38,2,2.54,6.01,5.7,12.01,4.23,7.93,8.85,16.55,11.7,21.71.54.85.85.92,1.23.31Z"/>
  <path class="cls-1" d="M378.3,624.63c-.69-.15-1.23.39-1.54.92-1,2.31-3.93,7.85-4.62,9.55-.31.77-.31,1.54.77,1.69,1.77.23,4.93.77,6.01,1.08.54.15.62.38.23.77-1,.85-2.77,1.92-3.23,1.85-1.31-.15-3.85-.38-7.24-.38-3.85,0-7.31.38-9.24.69-.69.08-.69-.23-.23-.69.46-.54,1-1.08,1.77-1.54.62-.38,2.46-.92,3.77-1.31,1-.23,1.46-.62,2.46-1.77,1.54-1.77,4.16-6.39,6.08-10.7.31-.69.39-.92-.15-1.54-.31-.38-.31-.54,0-.92.46-.54,1.46-1.54,2.16-2.23.23-.23.54-.62.92-1.39,3.23-7.01,6.08-13.78,7.24-16.94.85-2.16,1.31-3.39,1.54-4.39s.46-2.39.92-2.85c1-.92,3.62-3.16,5-3.7.31-.08.77-.08.46.62-.31.85-.46,2.69-.23,4.08.31,1.93,1.15,4.54,2.23,7.78,3.39,10.39,8.62,22.94,12.01,29.26,1.77,3.16,3.39,4.62,5.39,4.93,1.46.39,3.31.54,4.39.54.77,0,.69.38,0,1-1.54,1.39-3.23,1.62-6.08,1.54-2,0-5.54-.23-7.78-.23-1.77-.08-3,0-4,.23-.69.15-.85-.23-.31-.85.38-.54.77-1,1.54-1.69.54-.54.54-1.23.23-2-.92-2.62-3.54-8.47-4.93-12.01-.23-.62-.54-.92-1.16-.69-2.23.85-5.93,1.46-9.16,1.54-2.08,0-3.46-.08-5.24-.23ZM391.31,620.86c1.08-.23,1.23-.54,1-1.16-2.77-7.85-4.54-13.17-5.47-16.32-.15-.39-.62-.85-1,.08-1.46,3.93-4.39,11.32-6.31,15.94-.23.69.15.85.69,1,1.31.46,3.23.69,6.93.69,1.08,0,3.62-.15,4.16-.23Z"/>
  <path class="cls-1" d="M453.15,597.99c-.54-1.54-1.46-2.16-3.39-2.31-1.69-.08-4.23-.23-6.78-.23-.46,0-.54-.23-.23-.54,1-1,2.54-1.92,3.31-2,2.85-.15,8.16-.62,10.7-.62.85-.08,1.62.62,2.16,1.31,6.93,9.39,26.18,33.65,30.34,36.42.69.46,1.08.39,1.15-.15.08-4.62,0-12.32,0-17.79,0-6.39-.15-12.47-.38-14.32-.15-1.08-.62-1.23-1.77-1.31-2.16-.23-4.85-.54-6.16-.85-.39-.08-.62-.23-.31-.54.92-.69,3.31-2.39,3.85-2.39,1.39.15,3.08.46,6.31.46,4.93,0,8.7-.62,10.63-1,.54-.08.54.08.31.54-.39.62-1.39,1.69-2.23,2.08-1.16.46-2.93,1-4.08,1.23-.85.23-1.31.77-1.62,2-.69,2.31-1.31,9.09-1.31,20.79,0,8.08.31,20.17.46,22.33.08.92-.08,1.31-.69,1.23-2.23,0-5.16-2.08-8.16-5.54-6.62-7.47-19.02-23.18-26.56-32.88-.85-1-1.54-.69-1.54.54-.08,2.93-.23,10.47-.23,18.63.08,5.24.15,8.85.23,11.39.08,1.62.77,2.16,1.92,2.31,1.85.23,4.47.62,5.39.85.54.15.69.31.23.77-1,.85-2.85,2.16-3.46,2.08-1.62-.15-3.85-.38-6.78-.38-3.54,0-8.47.38-10.78.85-.62.15-.77,0-.46-.46.46-.62,1.46-1.54,2.16-1.92,1-.46,2.23-.85,4.08-1.31,1.46-.38,2.16-.85,2.69-2.39,1-2.62,1.85-12.71,1.85-25.41,0-6.62-.08-9.55-.85-11.47Z"/>
  <path class="cls-1" d="M540.58,596.83c-.15-.46-.62-.69-1.31-.85-1.46-.08-3.85-.46-5.7-.85-1.08-.23-1.39-.46-.77-.85,1.77-1,3.7-2,4.08-1.92,3,.54,9.16.77,20.25.77,6.16,0,9.39-.62,11.4-1.85.46-.23.77-.08.54.54-.92,2.62-1.54,6.31-1.54,10.93.08.46-.08.62-.46.46-.69-.23-1.62-1.16-1.85-1.69-.77-1.77-1.16-3.46-1.54-4.7-.15-.62-.38-1.31-.85-1.23-2.31.54-7.01.92-13.01.92-1.08,0-1.31.31-1.23,1.16.23,4.7.08,10.47.08,15.01,0,.85.62,1.08.92,1.15,1.39.54,5.62.85,9.32.85,2.39,0,4-.23,4.62-.92.38-.54.62-1.23,1.23-1.85.31-.31,1.62-1,2.54-1.39.62-.31.85-.23.54.54-1.23,3.08-1.85,7.47-1.85,12.32,0,.54-.31.77-.92.15-1.08-1-1.46-2.7-1.92-4.85-.23-.77-.46-1.23-1.23-1.08-2.77.46-9.24.54-12.63.62-.46,0-.62.31-.62,1.69,0,4.85-.15,10.39-.31,15.17,0,.85.23,1.54,1.46,1.77,3.93.54,9.47.46,12.4.08,2.08-.23,3.85-.69,5.47-1.85,1.62-1.16,3.23-3.62,4.62-6.62.23-.62.46-.77.77-.31.38.54.46,1.62.38,2.23-.46,2.39-1.92,5.16-3.23,6.93-1.54,1.92-3.39,3.31-5.62,3.31-6.62,0-13.17-.54-21.1-.54-4.23,0-8.78.23-10.63.62-.46.08-.62-.15-.15-.62.46-.62,1.54-1.54,2.46-1.85,1.08-.46,2.31-.77,4.47-1.16.62-.15,1.08-.46,1.31-1.08.62-1.39,1.08-7.78,1.08-16.48,0-11.17-.39-20.25-1.46-22.71Z"/>
  <path class="cls-1" d="M680.16,592.44c1,.54,1.69,1.62,1.62,2.46-.08.54-.31,1.15-.54,2-.31,1.15-.54,2.31-.77,4.08-.08.62-.69,1.46-1.16,1.85-.38.23-.69.23-.69-.54-.08-2-.31-4-1.16-5.08-1.08-1.54-3.08-2.7-6.47-2.7-5.62,0-9.47,3.62-9.47,9.55,0,4.08,2.39,6.08,5.54,7.62,2.39,1.08,8.47,3.23,11.24,4.54,3.62,1.69,5.85,4.31,5.85,8.62s-2.54,9.32-8.47,13.01c-4.85,3.08-10.09,4.08-13.63,4.08-3.31,0-6.47-1.08-7.7-2.23-.85-.85-1.16-2.23-.85-2.77.77-1.62,1.92-4.77,2.23-6.78.08-.85.31-1,.69-.85.54.15,1.08,1.08,1.08,1.69-.08,2.23-.08,3.31,1.16,4.7,1.39,1.54,4.24,2.62,7.55,2.62,8.62,0,11.24-5.31,11.24-9.32,0-2.93-1.39-5.16-4.62-6.62-4.16-1.85-7.62-3.16-10.16-4.31-3.85-1.85-7.08-4.54-7.08-10.09s2.77-9.32,6.78-12.32c3.16-2.46,7.62-4.47,12.24-4.47,3,0,4.47.62,5.54,1.23Z"/>
  <path class="cls-1" d="M770.71,613.77c0,10.32-4.77,16.71-8.55,19.87-3.08,2.7-8.85,5.62-11.55,6.47-3.16,1.08-6.39,1.85-8.85,1.85-13.32,0-22.71-8.32-22.71-23.02,0-7.24,2.62-13.24,6.85-17.71,2.16-2.23,6.47-5.16,11.09-7.24,4.16-1.85,8.93-2.77,12.47-2.77,13.78,0,21.25,9.93,21.25,22.56ZM732.98,598.84c-3.39,2.77-6.54,7.54-6.54,16.71,0,14.24,8.55,22.48,20.1,22.48,2.93,0,6.78-.85,9.7-2.93,4.16-2.93,7.24-7.93,7.24-17.71,0-13.32-7.24-22.48-19.09-22.48-4.7,0-8.78,1.69-11.4,3.93Z"/>
  <path class="cls-1" d="M849.75,593.37c1.46.77,2.77,1.85,2.77,3,.08.46,0,1.23-.31,1.85-.77,1.69-1.46,3.54-1.92,5.24-.23.85-.85,1.62-1.31,1.77-.23.08-.46,0-.46-.54-.15-3.31-.54-4.93-1.39-6.01-1-1.31-4.08-4.16-12.01-4.16-5.85,0-10.7,2.08-13.32,4.47-2.93,2.62-6.54,8.01-6.54,17.02,0,7.7,2.46,12.7,5.62,16.17,3.7,4.08,9.86,6.24,15.86,6.24,4.77,0,7.16-1.31,8.78-2.39,2.46-1.77,4.77-4.7,6.54-7.93.15-.31.31-.46.54-.31.38.15.69,1.16.54,1.92-.31,1.69-1.77,5.39-3.46,7.7-.77.92-1.77,1.54-2.7,2-2.77,1.16-8.85,2.54-14.09,2.54-13.63,0-25.41-6.62-25.41-23.25,0-9.62,4.31-16.25,10.63-20.71,5.24-3.93,13.63-6.78,20.63-6.78,5.54,0,8.85,1,11.01,2.16Z"/>
  <path class="cls-1" d="M894.4,597.6c-.15-.92-.62-1.23-1.46-1.31-1.69-.15-4.54-.54-5.77-.85-.54-.15-.85-.31-.23-.77.85-.62,3-2.16,3.54-2.08,1,.08,4.08.54,8.08.54,4.54,0,7.85-.38,11.16-.77.39-.15.46.15.31.38-.69,1.16-1.69,1.92-2.31,2.16-1.08.46-2,.62-3.7.92-.85.23-1.62.54-1.77,1.54-.39,1.54-.62,6.93-.62,17.79,0,8.24,0,15.94.31,19.48.08,1.77.38,2,1.23,2.08,2.31.31,5.31.69,6.54,1.08.54.15.62.46.31.69-1.77,1.46-3.16,2.16-3.7,2.08-1.69-.15-4.31-.46-8.39-.46-5.08,0-9.47.54-11.55.92-.54.08-.77-.15-.54-.38.31-.46,1.16-1.62,1.77-1.92.92-.46,3.31-1.08,4.31-1.39,1.23-.23,1.77-1,2.08-2.23.39-1.77.92-8.85.92-19.25,0-9.24-.08-15.86-.54-18.25Z"/>
  <path class="cls-1" d="M948.83,596.83c-.15-.46-.62-.69-1.31-.85-1.46-.08-3.85-.46-5.7-.85-1.08-.23-1.39-.46-.77-.85,1.77-1,3.7-2,4.08-1.92,3,.54,9.16.77,20.25.77,6.16,0,9.39-.62,11.4-1.85.46-.23.77-.08.54.54-.92,2.62-1.54,6.31-1.54,10.93.08.46-.08.62-.46.46-.69-.23-1.62-1.16-1.85-1.69-.77-1.77-1.15-3.46-1.54-4.7-.15-.62-.39-1.31-.85-1.23-2.31.54-7.01.92-13.01.92-1.08,0-1.31.31-1.23,1.16.23,4.7.08,10.47.08,15.01,0,.85.62,1.08.92,1.15,1.39.54,5.62.85,9.32.85,2.39,0,4-.23,4.62-.92.38-.54.62-1.23,1.23-1.85.31-.31,1.62-1,2.54-1.39.62-.31.85-.23.54.54-1.23,3.08-1.85,7.47-1.85,12.32,0,.54-.31.77-.92.15-1.08-1-1.46-2.7-1.92-4.85-.23-.77-.46-1.23-1.23-1.08-2.77.46-9.24.54-12.63.62-.46,0-.62.31-.62,1.69,0,4.85-.15,10.39-.31,15.17,0,.85.23,1.54,1.46,1.77,3.93.54,9.47.46,12.4.08,2.08-.23,3.85-.69,5.47-1.85,1.62-1.16,3.23-3.62,4.62-6.62.23-.62.46-.77.77-.31.39.54.46,1.62.39,2.23-.46,2.39-1.92,5.16-3.23,6.93-1.54,1.92-3.39,3.31-5.62,3.31-6.62,0-13.17-.54-21.1-.54-4.23,0-8.78.23-10.62.62-.46.08-.62-.15-.15-.62.46-.62,1.54-1.54,2.46-1.85,1.08-.46,2.31-.77,4.47-1.16.62-.15,1.08-.46,1.31-1.08.62-1.39,1.08-7.78,1.08-16.48,0-11.17-.38-20.25-1.46-22.71Z"/>
  <path class="cls-1" d="M1057.38,592.6c1.08-1,2.77-2.08,4.47-3,.62-.31,1-.15.77.54-1.31,3.23-2.31,8.85-2.08,13.78.08,1.16-.15,1.39-.92.85-.62-.54-1.54-1.62-1.92-2.85-.46-1.31-.85-3.7-1.08-5.24-.08-.69-.31-.92-1.08-.92-1.85.31-6.54,1-12.78,1.08-.85,0-.92.15-1.08,1.62-.23,3.31-.31,9.86-.31,17.63,0,13.78.23,17.25.46,18.86.15.85.46,1.39,1.31,1.54,2.46.23,7.08.85,8.47,1.31.46.23.62.38.23.69-1.15.85-3,2.31-3.54,2.23-2.16-.23-5.77-.62-10.47-.62-6.93,0-12.32.62-14.94,1.23-.46.08-.54-.23-.15-.62.54-.62,1.54-1.62,2.39-2,1.62-.77,4.47-1.39,6.93-1.85.92-.15,1.39-.77,1.69-1.77.38-1.46,1-9.39,1-21.87,0-6.93-.15-12.63-.38-14.4-.23-1.54-.46-2-1.16-2-5.31,0-10.93-.31-12.4-.46-1,0-1.31.54-1.77,1.85-.69,2.16-1.69,3.93-2.62,5.24-.54.77-1.39,1.69-2.16,2.16-.62.38-.92.38-.77-.23,1.08-3.08,2.23-8.78,2.31-13.01,0-.38.69-1.31,2.08-2.77.31-.31.54-.46.69,0,.46,1.69.85,2.16,1.54,2.46,1.39.69,6.7,1.62,18.94,1.62s17.02-.46,18.33-1.08Z"/>
  <path class="cls-1" d="M1098.52,596.06c-1.23-.15-3.31-.46-4.93-.77-.62-.15-.62-.46-.31-.69,1.31-1,3-1.92,3.46-1.92,1.46.08,4.39.46,7.78.46s7.39-.23,10.47-.62c.62-.08.62.15.23.62-.77,1-1.31,1.39-2,1.69-1.08.46-2,.54-2.77.85-.77.23-.62.77-.31,1.31,2.69,4,8.01,13.94,10.16,18.25.23.46.62.46.85,0,3.62-6.24,8.01-13.24,10.86-18.09.31-.54.08-1-.77-1.08-.92-.08-3.31-.46-4.31-.69-.62-.08-.85-.31-.39-.62,1.62-1.31,3-2.08,3.54-2.08,1.39.23,3.7.46,6.08.46,3.46,0,6.7-.38,9.16-.69.46-.08.62.08.31.46-.54.92-1.54,1.69-2.23,1.92-1.08.38-3.08.92-4.08,1.08-1.31.31-2.39,1.39-3.62,2.77-5.08,5.85-9.55,13.01-11.93,17.71-1.31,2.54-1.54,4.47-1.54,7.78,0,5.08.08,8.78.38,11.32.08.77.38,1.16,1.16,1.23,2.85.23,7.31.85,8.62,1.31.39.15.54.31.15.62-1.31,1.08-3.31,2.16-3.77,2.08-1.69-.23-5.39-.62-9.55-.62-6.78,0-12.09.62-14.55.92-.46.15-.54-.08-.31-.38.39-.69,1.77-1.69,2.77-2.08,1.31-.46,4.08-1.23,6.31-1.54.77-.15,1.16-.62,1.39-1.85.31-1.54.69-5.62.69-10.78,0-3.08-.15-4.47-1.16-6.85-3.16-6.93-9.01-16.02-11.86-19.17-1.39-1.46-2.23-2-4-2.31Z"/>
</svg>